<?xml version="1.0" encoding="UTF-8" standalone="no"?>
<svg
   width="210.90773"
   height="271.98782"
   viewBox="0 0 210.90773 271.98782"
   version="1.1"
   id="svg10"
   sodipodi:docname="logo.svg"
   inkscape:version="1.1.2 (0a00cf5339, 2022-02-04)"
   xmlns:inkscape="http://www.inkscape.org/namespaces/inkscape"
   xmlns:sodipodi="http://sodipodi.sourceforge.net/DTD/sodipodi-0.dtd"
   xmlns="http://www.w3.org/2000/svg"
   xmlns:svg="http://www.w3.org/2000/svg">
  <defs
     id="defs14">
    <rect
       x="1450.8651"
       y="193.77644"
       width="73.492744"
       height="75.915955"
       id="rect10477" />
    <rect
       x="1450.8651"
       y="193.77644"
       width="73.492744"
       height="75.915955"
       id="rect17848" />
    <rect
       x="1450.8651"
       y="193.77644"
       width="73.492744"
       height="75.915955"
       id="rect36929" />
    <rect
       x="1450.8651"
       y="193.77644"
       width="73.492744"
       height="75.915955"
       id="rect10477-7" />
    <rect
       x="1450.8651"
       y="193.77644"
       width="73.492744"
       height="75.915955"
       id="rect17848-5" />
    <rect
       x="1450.8651"
       y="193.77644"
       width="73.492744"
       height="75.915955"
       id="rect36929-3" />
    <rect
       x="1450.8651"
       y="193.77644"
       width="73.492744"
       height="75.915955"
       id="rect10477-1" />
    <rect
       x="1450.8651"
       y="193.77644"
       width="73.492744"
       height="75.915955"
       id="rect17848-8" />
    <rect
       x="1450.8651"
       y="193.77644"
       width="73.492744"
       height="75.915955"
       id="rect36929-7" />
    <rect
       x="1450.8651"
       y="193.77644"
       width="73.492744"
       height="75.915955"
       id="rect10477-0" />
    <rect
       x="1450.8651"
       y="193.77644"
       width="73.492744"
       height="75.915955"
       id="rect17848-6" />
    <rect
       x="1450.8651"
       y="193.77644"
       width="73.492744"
       height="75.915955"
       id="rect36929-1" />
    <filter
       inkscape:collect="always"
       style="color-interpolation-filters:sRGB"
       id="filter37746"
       x="-0.27372923"
       y="-0.26789486"
       width="1.5474585"
       height="1.5357897">
      <feGaussianBlur
         inkscape:collect="always"
         stdDeviation="2.5137468"
         id="feGaussianBlur37748" />
    </filter>
    <rect
       x="1450.8651"
       y="193.77644"
       width="73.492744"
       height="75.915955"
       id="rect71" />
    <rect
       x="1450.8651"
       y="193.77644"
       width="73.492744"
       height="75.915955"
       id="rect73" />
    <rect
       x="1450.8651"
       y="193.77644"
       width="73.492744"
       height="75.915955"
       id="rect75" />
    <clipPath
       clipPathUnits="userSpaceOnUse"
       id="clipPath381">
      <rect
         style="fill:#ffffff;stroke:#1a1a1a;stroke-width:0.264286"
         id="rect383"
         width="361.42084"
         height="176.87338"
         x="747.63165"
         y="220.13397"
         ry="12.168035" />
    </clipPath>
    <clipPath
       clipPathUnits="userSpaceOnUse"
       id="clipPath391">
      <rect
         style="fill:#ffffff;stroke:#1a1a1a;stroke-width:0.264286"
         id="rect393"
         width="361.42084"
         height="176.87338"
         x="560.61536"
         y="170.49109"
         ry="12.168035" />
    </clipPath>
    <clipPath
       clipPathUnits="userSpaceOnUse"
       id="clipPath799">
      <rect
         style="fill:#ffffff;stroke:#1a1a1a;stroke-width:0.264286"
         id="rect801"
         width="361.42084"
         height="176.87338"
         x="486.16626"
         y="95.256149"
         ry="12.168035" />
    </clipPath>
  </defs>
  <sodipodi:namedview
     id="namedview12"
     pagecolor="#505050"
     bordercolor="#ffffff"
     borderopacity="1"
     inkscape:pageshadow="0"
     inkscape:pageopacity="0"
     inkscape:pagecheckerboard="1"
     showgrid="false"
     fit-margin-top="0"
     fit-margin-left="0"
     fit-margin-right="0"
     fit-margin-bottom="0"
     inkscape:zoom="0.90509668"
     inkscape:cx="155.78446"
     inkscape:cy="195.00679"
     inkscape:window-width="1366"
     inkscape:window-height="710"
     inkscape:window-x="0"
     inkscape:window-y="0"
     inkscape:window-maximized="1"
     inkscape:current-layer="svg10" />
  <text
     xml:space="preserve"
     style="font-style:normal;font-weight:normal;font-size:39.9999px;line-height:1.25;font-family:sans-serif;fill:#000000;fill-opacity:1;stroke:none;stroke-width:0.999999"
     x="-2874.521"
     y="875.16321"
     id="text12645"><tspan
       sodipodi:role="line"
       id="tspan12643"
       style="stroke-width:0.999999"
       x="-2874.521"
       y="875.16321" /></text>
  <text
     xml:space="preserve"
     style="font-style:normal;font-weight:normal;font-size:39.9999px;line-height:1.25;font-family:sans-serif;fill:#000000;fill-opacity:1;stroke:none;stroke-width:0.999999"
     x="-2924.2534"
     y="958.24792"
     id="text32968"><tspan
       sodipodi:role="line"
       id="tspan32966"
       style="stroke-width:0.999999"
       x="-2924.2534"
       y="958.24792" /></text>
  <text
     xml:space="preserve"
     style="font-style:normal;font-weight:normal;font-size:39.9999px;line-height:1.25;font-family:sans-serif;fill:#000000;fill-opacity:1;stroke:none;stroke-width:0.999999"
     x="-3283.4907"
     y="-418.94064"
     id="text12645-5"><tspan
       sodipodi:role="line"
       id="tspan12643-9"
       style="stroke-width:0.999999"
       x="-3283.4907"
       y="-418.94064" /></text>
  <text
     xml:space="preserve"
     style="font-style:normal;font-weight:normal;font-size:39.9999px;line-height:1.25;font-family:sans-serif;fill:#000000;fill-opacity:1;stroke:none;stroke-width:0.999999"
     x="-3333.2231"
     y="-335.85593"
     id="text32968-4"><tspan
       sodipodi:role="line"
       id="tspan32966-9"
       style="stroke-width:0.999999"
       x="-3333.2231"
       y="-335.85593" /></text>
  <g
     id="g898"
     inkscape:export-filename="/home/harshit/Pictures/logo.png"
     inkscape:export-xdpi="96"
     inkscape:export-ydpi="96"
     transform="matrix(3.7795275,0,0,3.7795275,-3517.0974,-774.75725)">
    <g
       id="g50241"
       transform="translate(827.74353,103.63536)"
       inkscape:export-filename="/home/harshit/Desktop/code/nightly/logo.svg"
       inkscape:export-xdpi="96"
       inkscape:export-ydpi="96">
      <text
         xml:space="preserve"
         transform="matrix(1.1051016,0,0,1.1051016,-1501.459,-69.555817)"
         id="text17846"
         style="font-style:normal;font-variant:normal;font-weight:300;font-stretch:normal;font-size:9.34021px;line-height:1.25;font-family:Roboto;-inkscape-font-specification:'Roboto, Light';font-variant-ligatures:normal;font-variant-caps:normal;font-variant-numeric:normal;font-variant-east-asian:normal;white-space:pre;shape-inside:url(#rect17848-6);fill:#ffffff;fill-opacity:1;stroke:none"><tspan
           x="1450.8652"
           y="201.95003"
           id="tspan1427">N I G H T L Y</tspan></text>
    </g>
    <g
       id="g44382"
       transform="translate(307.43088,3.3595888)"
       inkscape:export-filename="/home/harshit/Desktop/code/nightly/logo.svg"
       inkscape:export-xdpi="96"
       inkscape:export-ydpi="96">
      <circle
         style="fill:#ffffff;fill-opacity:1;fill-rule:evenodd;stroke-width:0.264583"
         id="path124"
         cx="651.03583"
         cy="219.75101"
         r="18.122736" />
      <text
         xml:space="preserve"
         transform="matrix(0.75539561,0,0,0.75539561,-453.77953,59.881087)"
         id="text36927"
         style="font-style:normal;font-variant:normal;font-weight:normal;font-stretch:normal;font-size:40px;line-height:1.25;font-family:'Nimbus Mono PS';-inkscape-font-specification:'Nimbus Mono PS, Normal';font-variant-ligatures:normal;font-variant-caps:normal;font-variant-numeric:normal;font-variant-east-asian:normal;white-space:pre;shape-inside:url(#rect36929-1);mix-blend-mode:normal;fill:#527bd5;fill-opacity:1;stroke:none;filter:url(#filter37746)"><tspan
           x="1450.8652"
           y="222.89734"
           id="tspan1429">N</tspan></text>
      <text
         xml:space="preserve"
         transform="matrix(0.75539561,0,0,0.75539561,-453.77953,59.881087)"
         id="text10475"
         style="font-style:normal;font-variant:normal;font-weight:normal;font-stretch:normal;font-size:40px;line-height:1.25;font-family:'Nimbus Mono PS';-inkscape-font-specification:'Nimbus Mono PS, Normal';font-variant-ligatures:normal;font-variant-caps:normal;font-variant-numeric:normal;font-variant-east-asian:normal;white-space:pre;shape-inside:url(#rect10477-0);fill:#527bd5;fill-opacity:1;stroke:none"><tspan
           x="1450.8652"
           y="222.89734"
           id="tspan1431">N</tspan></text>
    </g>
    <g
       id="g44388"
       transform="translate(306.63647,3.3595888)"
       inkscape:export-filename="/home/harshit/Desktop/code/nightly/logo.svg"
       inkscape:export-xdpi="96"
       inkscape:export-ydpi="96">
      <rect
         class="svg__rect"
         x="631.03003"
         y="264.3313"
         width="20.245916"
         height="9.260417"
         fill="#ffffff"
         id="rect22009"
         style="stroke-width:0.264583" />
      <rect
         class="svg__rect"
         x="650.74677"
         y="264.3313"
         width="21.883688"
         height="9.260417"
         fill="#3c9ad5"
         id="rect22011"
         style="fill:#527bd5;fill-opacity:1;stroke-width:0.264583" />
      <path
         class="svg__text"
         d="m 636.20794,270.15212 h -1.41552 v -2.25689 h 0.39158 v 1.94469 h 1.02394 z m 1.02129,-1.05833 v 0 -0.127 q 0,-0.32808 0.11641,-0.58208 0.11642,-0.25136 0.33073,-0.38629 0.21167,-0.13494 0.48948,-0.13494 0.27517,0 0.48948,0.13229 0.21167,0.13229 0.32809,0.381 0.11641,0.24871 0.11906,0.57944 v 0 0.127 q 0,0.33073 -0.11642,0.58208 -0.11377,0.24871 -0.32808,0.38365 -0.21167,0.13493 -0.48948,0.13493 v 0 q -0.27517,0 -0.48948,-0.13493 -0.21431,-0.13494 -0.33073,-0.381 -0.11906,-0.24871 -0.11906,-0.57415 z m 0.39158,-0.14287 v 0.13229 q 0,0.37041 0.14552,0.57414 0.14552,0.20373 0.40217,0.20373 v 0 q 0.25929,0 0.39952,-0.19844 0.14023,-0.19843 0.14023,-0.57943 v 0 -0.11907 q 0,-0.3757 -0.14023,-0.57414 -0.14288,-0.20108 -0.40217,-0.20108 v 0 q -0.254,0 -0.39952,0.19843 -0.14287,0.20109 -0.14552,0.56357 z m 2.59027,0.14287 v 0 -0.127 q 0,-0.32808 0.11642,-0.58208 0.11906,-0.25136 0.33073,-0.38629 0.21431,-0.13494 0.48948,-0.13494 0.27516,0 0.48948,0.13229 0.21166,0.13229 0.32808,0.381 0.11642,0.24871 0.11906,0.57944 v 0 0.127 q 0,0.33073 -0.11377,0.58208 -0.11642,0.24871 -0.32808,0.38365 -0.21431,0.13493 -0.49213,0.13493 v 0 q -0.27252,0 -0.48948,-0.13493 -0.21431,-0.13494 -0.33073,-0.381 -0.11641,-0.24871 -0.11906,-0.57415 z m 0.39159,-0.14287 v 0.13229 q 0,0.37041 0.14552,0.57414 0.14552,0.20373 0.40216,0.20373 v 0 q 0.26194,0 0.40217,-0.19844 0.14023,-0.19843 0.14023,-0.57943 v 0 -0.11907 q 0,-0.3757 -0.14288,-0.57414 -0.14023,-0.20108 -0.40216,-0.20108 v 0 q -0.254,0 -0.39688,0.19843 -0.14287,0.20109 -0.14816,0.56357 z m 3.05593,1.2012 h -0.39423 v -2.25689 h 0.39423 v 1.05833 l 0.21696,-0.26723 0.65881,-0.7911 h 0.47625 l -0.83873,1.00012 0.88636,1.25677 h -0.46567 l -0.67998,-0.97631 -0.254,0.27252 z m 2.28336,-0.68262 v 0 h 0.39423 q 0,0.19314 0.127,0.29898 0.127,0.10583 0.36248,0.10583 v 0 q 0.20637,0 0.30956,-0.0847 0.10319,-0.082 0.10319,-0.2196 v 0 q 0,-0.14817 -0.10584,-0.22754 -0.10319,-0.082 -0.37835,-0.16404 -0.27252,-0.082 -0.43392,-0.18257 v 0 q -0.30692,-0.19314 -0.30692,-0.50535 v 0 q 0,-0.27252 0.22225,-0.44979 0.22225,-0.17727 0.5768,-0.17727 v 0 q 0.23548,0 0.42068,0.0873 0.18521,0.0873 0.2884,0.24606 0.10583,0.1614 0.10583,0.35719 v 0 h -0.38893 q 0,-0.17727 -0.11113,-0.27781 -0.11112,-0.0979 -0.3175,-0.0979 v 0 q -0.19315,0 -0.29898,0.082 -0.10583,0.082 -0.10583,0.22754 v 0 q 0,0.12436 0.11377,0.20903 0.11642,0.082 0.37835,0.15875 0.26459,0.0794 0.42334,0.17991 0.16139,0.10054 0.23548,0.23019 0.0741,0.127 0.0741,0.30162 v 0 q 0,0.28311 -0.21696,0.4498 -0.21696,0.16668 -0.58737,0.16668 v 0 q -0.24342,0 -0.4498,-0.0926 -0.20373,-0.09 -0.32014,-0.24871 -0.11377,-0.16139 -0.11377,-0.37306 z"
         fill="#3c9ad5"
         id="path22013"
         style="fill:#527bd5;fill-opacity:1;stroke-width:0.264583" />
      <path
         class="svg__text"
         d="m 654.38746,269.04087 v 0 q 0,-0.33337 0.15875,-0.59795 0.15875,-0.26194 0.43921,-0.41011 0.2831,-0.14817 0.64029,-0.14817 v 0 q 0.30956,0 0.55827,0.10584 0.24871,0.10319 0.41275,0.30162 v 0 l -0.39952,0.35984 q -0.2249,-0.24607 -0.53446,-0.24607 v 0 q -0.005,0 -0.005,0 v 0 q -0.28575,0 -0.46038,0.17463 -0.17462,0.17198 -0.17462,0.46037 v 0 q 0,0.18521 0.0794,0.32809 0.0794,0.14552 0.22225,0.22489 0.14288,0.082 0.32809,0.082 v 0 q 0.17991,0 0.33866,-0.0714 v 0 -0.61119 h 0.55563 v 0.92075 q -0.1905,0.13494 -0.43921,0.20902 -0.24606,0.0741 -0.49477,0.0741 v 0 q -0.34925,0 -0.62971,-0.14816 -0.27781,-0.14817 -0.43656,-0.41275 -0.15875,-0.26194 -0.15875,-0.59532 z m 4.10898,1.11125 h -0.62971 v -2.2225 h 1.016 q 0.30162,0 0.52387,0.10055 0.22225,0.0979 0.34396,0.28575 0.11906,0.1852 0.11906,0.43656 v 0 q 0,0.24077 -0.11112,0.42069 -0.11377,0.17991 -0.32279,0.28045 v 0 l 0.47889,0.6985 h -0.67204 l -0.40481,-0.59002 h -0.34131 z m 0,-1.72773 v 0.65088 h 0.34925 q 0.19314,0 0.29104,-0.0847 0.0979,-0.0847 0.0979,-0.23812 v 0 q 0,-0.15611 -0.0979,-0.24342 -0.0979,-0.0847 -0.29104,-0.0847 v 0 z m 4.42648,1.72773 h -1.78594 v -2.2225 h 1.7436 v 0.48684 h -1.11919 v 0.37306 h 0.9869 v 0.47096 h -0.9869 v 0.40746 h 1.16153 z m 1.6457,0 h -0.64293 l 0.9816,-2.2225 h 0.62177 l 0.98161,2.2225 h -0.65352 l -0.17463,-0.43127 h -0.93927 z m 0.64559,-1.60602 -0.2884,0.70909 h 0.5715 z m 2.87073,-0.11906 h -0.68527 v -0.49742 h 1.99231 v 0.49742 H 668.712 v 1.72508 h -0.62706 z"
         fill="#ffffff"
         x="87.52000000000001"
         id="path22015"
         style="stroke-width:0.264583" />
    </g>
  </g>
</svg>
