<?xml version="1.0" encoding="UTF-8" standalone="no"?>
<svg
   width="792.91437"
   height="923.15216"
   viewBox="0 0 792.91437 923.15215"
   version="1.1"
   id="svg10"
   sodipodi:docname="logo.svg"
   inkscape:version="1.1.2 (0a00cf5339, 2022-02-04)"
   xmlns:inkscape="http://www.inkscape.org/namespaces/inkscape"
   xmlns:sodipodi="http://sodipodi.sourceforge.net/DTD/sodipodi-0.dtd"
   xmlns="http://www.w3.org/2000/svg"
   xmlns:svg="http://www.w3.org/2000/svg">
  <defs
     id="defs14">
    <rect
       x="1450.8651"
       y="193.77644"
       width="73.492744"
       height="75.915955"
       id="rect10477" />
    <rect
       x="1450.8651"
       y="193.77644"
       width="73.492744"
       height="75.915955"
       id="rect17848" />
    <rect
       x="1450.8651"
       y="193.77644"
       width="73.492744"
       height="75.915955"
       id="rect36929" />
    <rect
       x="1450.8651"
       y="193.77644"
       width="73.492744"
       height="75.915955"
       id="rect10477-7" />
    <rect
       x="1450.8651"
       y="193.77644"
       width="73.492744"
       height="75.915955"
       id="rect17848-5" />
    <rect
       x="1450.8651"
       y="193.77644"
       width="73.492744"
       height="75.915955"
       id="rect36929-3" />
    <rect
       x="1450.8651"
       y="193.77644"
       width="73.492744"
       height="75.915955"
       id="rect10477-1" />
    <rect
       x="1450.8651"
       y="193.77644"
       width="73.492744"
       height="75.915955"
       id="rect17848-8" />
    <rect
       x="1450.8651"
       y="193.77644"
       width="73.492744"
       height="75.915955"
       id="rect36929-7" />
    <rect
       x="1450.8651"
       y="193.77644"
       width="73.492744"
       height="75.915955"
       id="rect10477-0" />
    <rect
       x="1450.8651"
       y="193.77644"
       width="73.492744"
       height="75.915955"
       id="rect17848-6" />
    <rect
       x="1450.8651"
       y="193.77644"
       width="73.492744"
       height="75.915955"
       id="rect36929-1" />
    <rect
       x="1450.8651"
       y="193.77644"
       width="73.492744"
       height="75.915955"
       id="rect71" />
    <rect
       x="1450.8651"
       y="193.77644"
       width="73.492744"
       height="75.915955"
       id="rect73" />
    <rect
       x="1450.8651"
       y="193.77644"
       width="73.492744"
       height="75.915955"
       id="rect75" />
    <clipPath
       clipPathUnits="userSpaceOnUse"
       id="clipPath381">
      <rect
         style="fill:#ffffff;stroke:#1a1a1a;stroke-width:0.264286"
         id="rect383"
         width="361.42084"
         height="176.87338"
         x="747.63165"
         y="220.13397"
         ry="12.168035" />
    </clipPath>
    <clipPath
       clipPathUnits="userSpaceOnUse"
       id="clipPath391">
      <rect
         style="fill:#ffffff;stroke:#1a1a1a;stroke-width:0.264286"
         id="rect393"
         width="361.42084"
         height="176.87338"
         x="560.61536"
         y="170.49109"
         ry="12.168035" />
    </clipPath>
    <clipPath
       clipPathUnits="userSpaceOnUse"
       id="clipPath799">
      <rect
         style="fill:#ffffff;stroke:#1a1a1a;stroke-width:0.264286"
         id="rect801"
         width="361.42084"
         height="176.87338"
         x="486.16626"
         y="95.256149"
         ry="12.168035" />
    </clipPath>
    <inkscape:path-effect
       effect="bspline"
       id="path-effect17819"
       is_visible="true"
       lpeversion="1"
       weight="33.333333"
       steps="2"
       helper_size="0"
       apply_no_weight="true"
       apply_with_weight="true"
       only_selected="false" />
    <inkscape:path-effect
       effect="bspline"
       id="path-effect17696"
       is_visible="true"
       lpeversion="1"
       weight="33.333333"
       steps="2"
       helper_size="0"
       apply_no_weight="true"
       apply_with_weight="true"
       only_selected="false" />
    <inkscape:path-effect
       effect="powerclip"
       id="path-effect1884"
       is_visible="true"
       lpeversion="1"
       inverse="true"
       flatten="false"
       hide_clip="false"
       message="Use fill-rule evenodd on &lt;b&gt;fill and stroke&lt;/b&gt; dialog if no flatten result after convert clip to paths." />
    <inkscape:path-effect
       effect="bspline"
       id="path-effect1874"
       is_visible="true"
       lpeversion="1"
       weight="33.333333"
       steps="2"
       helper_size="0"
       apply_no_weight="true"
       apply_with_weight="true"
       only_selected="false" />
    <inkscape:path-effect
       effect="bspline"
       id="path-effect1786"
       is_visible="true"
       lpeversion="1"
       weight="33.333333"
       steps="2"
       helper_size="0"
       apply_no_weight="true"
       apply_with_weight="true"
       only_selected="false" />
    <rect
       x="992.78577"
       y="1500.1165"
       width="476.85791"
       height="126.46153"
       id="rect4707" />
    <rect
       x="1450.8651"
       y="193.77644"
       width="73.492744"
       height="75.915955"
       id="rect10477-6" />
    <rect
       x="1450.8651"
       y="193.77644"
       width="73.492744"
       height="75.915955"
       id="rect17848-1" />
    <rect
       x="1450.8651"
       y="193.77644"
       width="73.492744"
       height="75.915955"
       id="rect36929-0" />
    <rect
       x="1450.8651"
       y="193.77644"
       width="73.492744"
       height="75.915955"
       id="rect71-6" />
    <rect
       x="1450.8651"
       y="193.77644"
       width="73.492744"
       height="75.915955"
       id="rect73-1" />
    <rect
       x="1450.8651"
       y="193.77644"
       width="73.492744"
       height="75.915955"
       id="rect75-5" />
    <clipPath
       clipPathUnits="userSpaceOnUse"
       id="clipPath381-9">
      <rect
         style="fill:#ffffff;stroke:#1a1a1a;stroke-width:0.264286"
         id="rect383-4"
         width="361.42084"
         height="176.87338"
         x="747.63165"
         y="220.13397"
         ry="12.168035" />
    </clipPath>
    <clipPath
       clipPathUnits="userSpaceOnUse"
       id="clipPath391-9">
      <rect
         style="fill:#ffffff;stroke:#1a1a1a;stroke-width:0.264286"
         id="rect393-0"
         width="361.42084"
         height="176.87338"
         x="560.61536"
         y="170.49109"
         ry="12.168035" />
    </clipPath>
    <clipPath
       clipPathUnits="userSpaceOnUse"
       id="clipPath799-9">
      <rect
         style="fill:#ffffff;stroke:#1a1a1a;stroke-width:0.264286"
         id="rect801-1"
         width="361.42084"
         height="176.87338"
         x="486.16626"
         y="95.256149"
         ry="12.168035" />
    </clipPath>
    <clipPath
       clipPathUnits="userSpaceOnUse"
       id="clipPath1876">
      <path
         style="fill:none;stroke:#000000;stroke-width:0.264583px;stroke-linecap:butt;stroke-linejoin:miter;stroke-opacity:1"
         d="m 238.10562,430.68958 c 9.48403,-7.47483 25.35242,-7.51719 33.46337,-5.82868 8.11095,1.68851 8.4646,5.10742 8.68658,14.11803 0.22197,9.0106 0.31229,23.61226 0.0837,32.58103 -0.2286,8.96877 -0.77606,12.30426 -9.19539,12.99846 -8.41934,0.69421 -24.71016,-1.25271 -34.14237,-4.45612 -9.4322,-3.20342 -12.00525,-7.6634 -11.74221,-17.34722 0.26303,-9.68382 3.36229,-24.59066 12.84632,-32.0655 z"
         id="path1878"
         inkscape:path-effect="#path-effect1874"
         inkscape:original-d="m 231.72095,423.2571 c 15.8687,-0.0421 31.73709,-0.0844 47.60529,-0.12706 0.35393,3.41935 0.70755,6.83826 1.06098,10.25697 0.0906,14.60252 0.18092,29.20418 0.27096,43.80588 -0.54719,3.33589 -1.09466,6.67138 -1.6424,10.0067 -16.29127,-1.94673 -32.58209,-3.89364 -48.87352,-5.84087 -2.57286,-4.45989 -5.14591,-8.91987 -7.71927,-13.38021 3.09962,-14.90719 6.19892,-29.81402 9.29796,-44.72141 z" />
    </clipPath>
    <clipPath
       clipPathUnits="userSpaceOnUse"
       id="clipPath1880">
      <path
         style="display:none;fill:none;stroke:#000000;stroke-width:0.264583px;stroke-linecap:butt;stroke-linejoin:miter;stroke-opacity:1"
         d="m 215.42374,345.46814 c 9.48403,-7.47484 25.35244,-7.51719 33.46338,-5.82868 8.11094,1.6885 8.46458,5.10742 8.68656,14.11802 0.22198,9.0106 0.31231,23.61227 0.0837,32.58104 -0.2286,8.96876 -0.77607,12.30426 -9.1954,12.99846 -8.41932,0.6942 -24.71017,-1.25271 -34.14237,-4.45613 -9.4322,-3.20342 -12.00523,-7.6634 -11.7422,-17.34721 0.26303,-9.68382 3.36229,-24.59066 12.84631,-32.0655 z"
         id="path1882"
         inkscape:path-effect="#path-effect1786"
         inkscape:original-d="m 209.03907,338.03565 c 15.8687,-0.0421 31.73711,-0.0844 47.60529,-0.12705 0.35393,3.41934 0.70757,6.83826 1.06097,10.25697 0.0906,14.60251 0.18093,29.20418 0.27099,43.80587 -0.54721,3.33589 -1.09469,6.67139 -1.64243,10.0067 -16.29124,-1.94673 -32.58209,-3.89364 -48.87351,-5.84086 -2.57286,-4.4599 -5.14591,-8.91987 -7.71925,-13.38022 3.09962,-14.90718 6.1989,-29.81402 9.29794,-44.72141 z" />
      <path
         id="lpe_path-effect1884"
         style="fill:none;stroke:#000000;stroke-width:0.264583px;stroke-linecap:butt;stroke-linejoin:miter;stroke-opacity:1"
         class="powerclip"
         d="m 213.73185,339.82397 h 240.16386 v 54.67489 H 213.73185 Z m -4.69278,-1.78832 c -3.09904,14.90739 -6.19832,29.81423 -9.29794,44.72141 2.57334,4.46035 5.14639,8.92032 7.71925,13.38022 16.29142,1.94722 32.58227,3.89413 48.87351,5.84086 0.54774,-3.33531 1.09522,-6.67081 1.64243,-10.0067 -0.0901,-14.60169 -0.18039,-29.20336 -0.27099,-43.80587 -0.3534,-3.41871 -0.70704,-6.83763 -1.06097,-10.25697 -15.86818,0.0427 -31.73659,0.085 -47.60529,0.12705 z" />
    </clipPath>
    <rect
       x="1450.8651"
       y="193.77644"
       width="102.83579"
       height="20.544498"
       id="rect87625" />
    <clipPath
       clipPathUnits="userSpaceOnUse"
       id="clipPath17778">
      <path
         style="fill:none;stroke:#000000;stroke-width:0.264583px;stroke-linecap:butt;stroke-linejoin:miter;stroke-opacity:1"
         d="m 273.54422,342.73442 c -6.12079,1.73132 -13.0806,4.62983 -17.64865,6.61896 -4.56804,1.98913 -6.74422,3.06884 -5.37524,12.1464 1.36899,9.07755 6.283,26.15191 10.31114,35.42551 4.02815,9.27359 7.16999,10.74622 11.87155,9.82879 4.70156,-0.91744 10.96276,-4.22461 15.484,-14.06047 4.52123,-9.83585 7.30237,-26.1999 7.35265,-36.09115 0.0503,-9.89125 -2.6305,-13.30927 -6.6118,-14.7364 -3.9813,-1.42712 -9.26286,-0.86297 -15.38365,0.86836 z"
         id="path17780"
         inkscape:path-effect="#path-effect17696"
         inkscape:original-d="m 274.38311,341.56728 c -6.95955,2.89878 -13.91936,5.79729 -20.87941,8.69553 -2.17601,1.08003 -4.35219,2.15974 -6.52867,3.23919 4.91447,17.07528 9.82847,34.14964 14.74231,51.22405 3.14222,1.47296 6.28407,2.94558 9.42568,4.41796 6.26174,-3.30703 12.52294,-6.61421 18.78401,-9.92174 2.78152,-16.36446 5.56266,-32.72851 8.34359,-49.09318 -2.68063,-3.41791 -5.36141,-6.83593 -8.04252,-10.2543 -5.2815,0.56444 -10.56306,1.12858 -15.84499,1.69249 z" />
    </clipPath>
  </defs>
  <sodipodi:namedview
     id="namedview12"
     pagecolor="#505050"
     bordercolor="#ffffff"
     borderopacity="1"
     inkscape:pageshadow="0"
     inkscape:pageopacity="0"
     inkscape:pagecheckerboard="1"
     showgrid="false"
     fit-margin-top="0"
     fit-margin-left="0"
     fit-margin-right="0"
     fit-margin-bottom="0"
     inkscape:zoom="0.32"
     inkscape:cx="365.625"
     inkscape:cy="585.9375"
     inkscape:window-width="1360"
     inkscape:window-height="710"
     inkscape:window-x="0"
     inkscape:window-y="0"
     inkscape:window-maximized="1"
     inkscape:current-layer="svg10" />
  <text
     xml:space="preserve"
     style="font-style:normal;font-weight:normal;font-size:39.9999px;line-height:1.25;font-family:sans-serif;fill:#000000;fill-opacity:1;stroke:none;stroke-width:0.999999"
     x="-2857.9099"
     y="1101.9747"
     id="text12645"><tspan
       sodipodi:role="line"
       id="tspan12643"
       style="stroke-width:0.999999"
       x="-2857.9099"
       y="1101.9747" /></text>
  <text
     xml:space="preserve"
     style="font-style:normal;font-weight:normal;font-size:39.9999px;line-height:1.25;font-family:sans-serif;fill:#000000;fill-opacity:1;stroke:none;stroke-width:0.999999"
     x="-2907.6423"
     y="1185.0594"
     id="text32968"><tspan
       sodipodi:role="line"
       id="tspan32966"
       style="stroke-width:0.999999"
       x="-2907.6423"
       y="1185.0594" /></text>
  <text
     xml:space="preserve"
     style="font-style:normal;font-weight:normal;font-size:39.9999px;line-height:1.25;font-family:sans-serif;fill:#000000;fill-opacity:1;stroke:none;stroke-width:0.999999"
     x="-3266.8796"
     y="-192.12915"
     id="text12645-5"><tspan
       sodipodi:role="line"
       id="tspan12643-9"
       style="stroke-width:0.999999"
       x="-3266.8796"
       y="-192.12915" /></text>
  <text
     xml:space="preserve"
     style="font-style:normal;font-weight:normal;font-size:39.9999px;line-height:1.25;font-family:sans-serif;fill:#000000;fill-opacity:1;stroke:none;stroke-width:0.999999"
     x="-3316.6121"
     y="-109.04443"
     id="text32968-4"><tspan
       sodipodi:role="line"
       id="tspan32966-9"
       style="stroke-width:0.999999"
       x="-3316.6121"
       y="-109.04443" /></text>
  <text
     xml:space="preserve"
     style="font-style:normal;font-weight:normal;font-size:39.9999px;line-height:1.25;font-family:sans-serif;fill:#000000;fill-opacity:1;stroke:none;stroke-width:0.999999"
     x="-723.94019"
     y="-785.33612"
     id="text12645-7"><tspan
       sodipodi:role="line"
       id="tspan12643-7"
       style="stroke-width:0.999999"
       x="-723.94019"
       y="-785.33612" /></text>
  <text
     xml:space="preserve"
     style="font-style:normal;font-weight:normal;font-size:39.9999px;line-height:1.25;font-family:sans-serif;fill:#000000;fill-opacity:1;stroke:none;stroke-width:0.999999"
     x="-773.67273"
     y="-702.25146"
     id="text32968-1"><tspan
       sodipodi:role="line"
       id="tspan32966-1"
       style="stroke-width:0.999999"
       x="-773.67273"
       y="-702.25146" /></text>
  <g
     id="g20420"
     transform="matrix(3.7795275,0,0,3.7795275,-957.547,-1141.1527)">
    <g
       id="g20058"
       transform="translate(9.509855)">
      <rect
         style="fill:#e5e9f0;fill-opacity:1;stroke-width:0.259593"
         id="rect19638"
         width="209.79193"
         height="199.60634"
         x="243.84113"
         y="301.92999"
         ry="5.9513826" />
      <rect
         style="fill:#161320;fill-opacity:1;stroke-width:0.266705"
         id="rect61802"
         width="201.72964"
         height="190.86981"
         x="247.87227"
         y="306.32104"
         ry="5.8256416" />
      <rect
         style="fill:#e5e9f0;stroke-width:0.548974"
         id="rect4639"
         width="164.69965"
         height="128.02621"
         x="268.80612"
         y="312.51651"
         ry="0" />
      <path
         style="fill:#e5e9f0;fill-opacity:1;stroke-width:0.264583"
         d="m 250.93394,387.31603 c -1.20355,-1.20054 -5.20833,-5.57609 -8.89951,-9.72343 -7.49593,-8.42229 -13.1806,-14.28751 -13.8477,-14.28751 h -0.44181 v 9.88027 9.88026 l -0.61502,1.16609 c -0.92952,1.7624 -1.98862,2.35672 -4.19974,2.35672 -2.2273,0 -3.2855,-0.48545 -3.81366,-1.7495 l -0.38465,-0.9206 0.33935,-0.69594 c 0.47063,-0.96515 0.7967,-0.98988 1.30365,-0.0989 0.49564,0.87113 1.75198,1.27697 2.58048,0.83358 0.29321,-0.15692 0.65671,-0.7304 0.80779,-1.27439 0.17726,-0.63826 0.27521,-7.30006 0.27616,-18.7823 l 0.001,-17.79323 h 0.56572 c 0.31115,0 1.11482,0.5035 1.78594,1.11888 2.27487,2.08597 6.428,6.68129 6.93963,7.67851 0.27997,0.54571 0.63079,0.99219 0.77958,0.99219 0.50251,0 2.95947,2.49735 5.17405,5.2591 2.35577,2.93781 9.62297,10.88048 9.95517,10.88048 0.32272,0 0.23939,-21.41072 -0.0879,-22.58952 -0.15668,-0.56429 -0.58274,-1.32385 -0.9468,-1.6879 l -0.66192,-0.66193 -1.71719,0.17593 -1.71719,0.17593 0.0858,-0.60469 c 0.13053,-0.92013 2.21034,-1.56588 4.64685,-1.44277 l 1.91524,0.0968 1.25976,0.76894 c 0.90868,0.55463 1.44411,1.13723 1.92122,2.09045 l 0.66146,1.32151 -0.023,8.06979 c -0.0127,4.43839 -0.0252,8.24839 -0.028,8.46667 -0.003,0.21828 0.04,5.39718 0.095,11.50867 l 0.0999,11.1118 -0.45326,0.33143 c -0.24928,0.18229 -0.61419,0.33144 -0.8109,0.33144 -0.19671,0 -1.34238,-0.98227 -2.54594,-2.18282 z m 157.45367,1.49773 c -0.0858,-0.0858 -0.0929,-0.54439 -0.0158,-1.01918 0.1098,-0.67661 0.0339,-0.90426 -0.3512,-1.05288 -0.27021,-0.10429 -5.50848,-0.17799 -11.64062,-0.16376 -7.82923,0.0181 -11.34634,-0.0639 -11.81092,-0.27558 -1.12655,-0.51329 -1.24913,-1.22066 -1.24913,-7.20814 V 373.477 l 0.39307,-0.56119 0.39307,-0.56118 -0.39307,-0.15084 -0.39307,-0.15084 v -12.27903 -12.27903 l 0.43976,-0.36313 c 0.3368,-0.2781 1.3125,-0.34608 4.16719,-0.29033 2.05008,0.04 3.93578,0.13736 4.19044,0.21627 l 0.46303,0.14347 v 7.5311 7.5311 l -0.4083,0.15668 -0.4083,0.15668 0.40507,0.44759 0.40507,0.4476 0.0694,10.0369 0.0694,10.0369 7.9375,0.13229 7.9375,0.13229 1.2657,0.58439 c 2.77748,1.28238 2.52239,4.57499 -0.35444,4.57499 -0.52545,0 -1.02552,-0.0702 -1.11128,-0.15592 z M 289.12825,386.7398 c -10.35627,-2.15736 -16.8944,-10.27412 -16.31557,-20.25494 0.33918,-5.84853 1.83603,-9.25336 5.97506,-13.59125 2.60803,-2.73334 5.30396,-4.48572 8.64979,-5.62244 l 2.0876,-0.70925 2.77812,-0.02 c 3.26955,-0.0236 4.99282,0.34087 7.60725,1.60874 3.72899,1.80838 5.14087,4.67536 3.77941,7.67451 -0.63165,1.39147 -1.86524,2.18596 -3.39615,2.18729 -2.15319,0.002 -3.75717,-1.38328 -3.75717,-3.24459 v -1.05756 l 0.94488,-0.89113 c 0.51968,-0.49013 1.11499,-0.89114 1.32291,-0.89114 1.25358,0 -0.90253,-2.15246 -2.64471,-2.64024 -1.58975,-0.44511 -4.08466,-0.22757 -6.084,0.53047 -1.20819,0.45808 -2.0306,1.05425 -3.59847,2.60855 -3.26941,3.24111 -4.5437,6.39652 -5.14104,12.73039 l -0.31191,3.30729 0.44409,0.66146 c 0.24425,0.3638 0.81627,1.85208 1.27116,3.30729 1.05794,3.3844 2.35763,5.64658 4.3998,7.65813 1.95208,1.92279 4.02266,2.99199 6.72929,3.47483 2.72105,0.48542 3.10762,0.46596 3.76293,-0.18935 l 0.56577,-0.56577 -0.17673,-2.73368 -0.17674,-2.73368 0.52047,-0.52048 c 0.28626,-0.28626 0.4024,-0.55983 0.25809,-0.60793 -0.44407,-0.14802 -0.81061,-2.3841 -0.6308,-3.84822 l 0.17058,-1.38906 h -2.50427 -2.50427 l -0.1606,-0.41851 c -0.0883,-0.23019 -0.1606,-0.6469 -0.1606,-0.92605 v -0.50752 h 6.06652 6.06652 l 0.41577,0.41577 0.41577,0.41578 v 6.18766 6.18767 l -1.00833,1.05998 c -1.10096,1.15735 -3.51727,2.39851 -6.00312,3.08355 -2.12691,0.58613 -7.41574,0.73041 -9.6573,0.26346 z m 69.10917,-0.46887 c -0.21359,-0.21359 -0.3175,-1.41658 -0.3175,-3.67586 v -3.35836 l 0.43289,-0.16612 0.43289,-0.16611 -0.43289,-0.47834 c -0.53871,-0.59526 -0.54888,-1.7935 -0.12951,-15.25334 0.17229,-5.52979 0.22675,-10.61971 0.12102,-11.31093 l -0.19224,-1.25678 h -5.10111 c -5.31759,0 -7.06918,-0.26169 -8.12065,-1.21326 -1.06543,-0.9642 -0.26748,-3.7791 1.23299,-4.34958 0.9077,-0.34511 0.86413,-0.37249 0.95807,0.60191 l 0.0829,0.85989 14.55209,0.13229 14.55208,0.1323 1.05833,0.52916 c 1.46752,0.73376 2.03866,1.92346 1.922,4.00352 -0.10734,1.91372 -0.81398,3.12932 -2.42717,4.17533 -1.38778,0.89986 -3.69594,0.96609 -4.75081,0.13632 -1.19614,-0.94088 -0.80719,-1.73474 0.44722,-0.91282 1.17458,0.76962 3.34852,-0.38789 3.7471,-1.99512 0.11664,-0.47032 0.008,-0.87579 -0.35331,-1.32292 l -0.52149,-0.64472 -4.42424,-0.0844 c -2.43333,-0.0464 -4.51993,0.0131 -4.63688,0.1323 -0.11696,0.11918 -0.28597,8.01528 -0.37559,17.5469 -0.0896,9.53161 -0.22449,17.53857 -0.2997,17.79323 l -0.13674,0.46302 h -3.50113 c -2.37033,0 -3.60368,-0.10255 -3.81863,-0.3175 z m 69.20177,0.0317 -0.46302,-0.26968 v -2.60438 -2.60438 l 0.46302,-0.17839 0.46302,-0.17839 -0.48605,-0.27283 -0.48605,-0.27282 0.22088,-4.67032 c 0.32644,-6.90214 0.39011,-6.47954 -1.4896,-9.88701 -3.25516,-5.90086 -9.12464,-15.55311 -9.45776,-15.55311 -0.18698,0 -0.33996,0.22355 -0.33996,0.49678 0,0.27322 -0.178,0.64449 -0.39555,0.82504 l -0.39555,0.32828 -0.66278,-0.43427 c -2.28609,-1.49791 2.21027,-4.99684 5.88849,-4.58225 1.45682,0.1642 2.19869,0.69826 3.92162,2.82307 2.35314,2.90203 4.19945,6.06317 4.19945,7.19002 0,0.77737 0.11876,1.0321 0.53518,1.1479 0.3159,0.0879 1.05422,1.04536 1.80192,2.33686 0.69671,1.20341 1.54937,2.54154 1.89479,2.97361 l 0.62804,0.78559 0.71366,-0.66146 c 0.39252,-0.3638 2.55427,-3.41406 4.80389,-6.77835 2.24961,-3.3643 4.42628,-6.51945 4.83703,-7.01146 l 0.74681,-0.89456 h 1.72101 c 2.15305,0 2.90261,0.53109 2.78159,1.97085 l -0.079,0.93956 -0.52916,-0.0913 c -0.29105,-0.0502 -0.62439,-0.25859 -0.74076,-0.46302 -0.11636,-0.20443 -0.37041,-0.37169 -0.56451,-0.37169 -0.86334,0 -3.48166,3.64603 -8.48656,11.8176 l -2.9569,4.82776 -0.18738,9.58349 c -0.10306,5.27092 -0.24795,9.6815 -0.32198,9.80128 -0.19422,0.31425 -7.02684,0.25295 -7.57785,-0.068 z m -167.67038,-0.49058 c -0.18142,-0.339 -0.27389,-6.85741 -0.27389,-19.30848 v -18.79671 l 0.71493,-0.46912 c 0.88004,-0.57746 5.237,-0.80025 6.89881,-0.35277 l 1.09629,0.2952 0.15882,0.85256 c 0.0874,0.4689 0.12189,3.51148 0.0768,6.76128 l -0.0821,5.90873 -0.51359,0.37512 -0.51359,0.37513 h 0.41914 c 0.23053,0 0.49141,0.18833 0.57974,0.41852 0.0883,0.23018 0.16059,5.82612 0.16059,12.43541 v 12.01691 h -4.22402 -4.22402 z m 51.06538,0.002 c -0.2221,-0.415 -0.27227,-2.37846 -0.17833,-6.9789 0.0719,-3.52079 0.12698,-6.58003 0.12239,-6.79831 -0.005,-0.21828 -0.0603,-5.84445 -0.12373,-12.50259 l -0.11541,-12.10572 0.65092,-0.29658 c 0.44867,-0.20442 1.76717,-0.23679 4.24353,-0.10415 l 3.59261,0.19231 v 3.08903 c 0,2.35713 -0.0968,3.22725 -0.40865,3.67245 l -0.40865,0.58343 0.32287,0.59992 c 0.18603,0.34567 0.37385,2.0857 0.44316,4.10565 0.0786,2.28992 0.22303,3.52514 0.41651,3.56169 0.16292,0.0308 3.0045,0.0605 6.31462,0.0661 l 6.0184,0.0102 8e-4,-7.61332 7.9e-4,-7.61332 0.59531,-0.21965 c 0.97973,-0.36148 6.19692,-0.58096 6.95536,-0.2926 l 0.68977,0.26225 -0.0263,7.34145 c -0.0145,4.03779 0.0516,8.41906 0.14681,9.73616 0.0952,1.3171 0.0846,6.76421 -0.0237,12.10469 l -0.19666,9.70997 h -4.07022 -4.07021 v -3.38667 c 0,-2.1545 0.10822,-3.49489 0.29746,-3.68412 0.22021,-0.22022 0.22021,-0.51902 0,-1.15073 -0.18665,-0.53541 -0.29746,-3.10556 -0.29746,-6.89922 v -6.04593 l -5.6224,0.004 c -3.09231,0.002 -5.89028,0.0754 -6.2177,0.16316 l -0.59532,0.15953 -0.0145,4.53321 c -0.0226,7.09859 -0.41663,15.52116 -0.74121,15.84574 -0.16519,0.1652 -1.79985,0.33894 -3.83975,0.40813 l -3.55209,0.12047 -0.30905,-0.57747 z"
         id="path1749"
         clip-path="url(#clipPath1880)"
         inkscape:path-effect="#path-effect1884"
         inkscape:original-d="m 250.93394,387.31603 c -1.20355,-1.20054 -5.20833,-5.57609 -8.89951,-9.72343 -7.49593,-8.42229 -13.1806,-14.28751 -13.8477,-14.28751 h -0.44181 v 9.88027 9.88026 l -0.61502,1.16609 c -0.92952,1.7624 -1.98862,2.35672 -4.19974,2.35672 -2.2273,0 -3.2855,-0.48545 -3.81366,-1.7495 l -0.38465,-0.9206 0.33935,-0.69594 c 0.47063,-0.96515 0.7967,-0.98988 1.30365,-0.0989 0.49564,0.87113 1.75198,1.27697 2.58048,0.83358 0.29321,-0.15692 0.65671,-0.7304 0.80779,-1.27439 0.17726,-0.63826 0.27521,-7.30006 0.27616,-18.7823 l 0.001,-17.79323 h 0.56572 c 0.31115,0 1.11482,0.5035 1.78594,1.11888 2.27487,2.08597 6.428,6.68129 6.93963,7.67851 0.27997,0.54571 0.63079,0.99219 0.77958,0.99219 0.50251,0 2.95947,2.49735 5.17405,5.2591 2.35577,2.93781 9.62297,10.88048 9.95517,10.88048 0.32272,0 0.23939,-21.41072 -0.0879,-22.58952 -0.15668,-0.56429 -0.58274,-1.32385 -0.9468,-1.6879 l -0.66192,-0.66193 -1.71719,0.17593 -1.71719,0.17593 0.0858,-0.60469 c 0.13053,-0.92013 2.21034,-1.56588 4.64685,-1.44277 l 1.91524,0.0968 1.25976,0.76894 c 0.90868,0.55463 1.44411,1.13723 1.92122,2.09045 l 0.66146,1.32151 -0.023,8.06979 c -0.0127,4.43839 -0.0252,8.24839 -0.028,8.46667 -0.003,0.21828 0.04,5.39718 0.095,11.50867 l 0.0999,11.1118 -0.45326,0.33143 c -0.24928,0.18229 -0.61419,0.33144 -0.8109,0.33144 -0.19671,0 -1.34238,-0.98227 -2.54594,-2.18282 z m 157.45367,1.49773 c -0.0858,-0.0858 -0.0929,-0.54439 -0.0158,-1.01918 0.1098,-0.67661 0.0339,-0.90426 -0.3512,-1.05288 -0.27021,-0.10429 -5.50848,-0.17799 -11.64062,-0.16376 -7.82923,0.0181 -11.34634,-0.0639 -11.81092,-0.27558 -1.12655,-0.51329 -1.24913,-1.22066 -1.24913,-7.20814 V 373.477 l 0.39307,-0.56119 0.39307,-0.56118 -0.39307,-0.15084 -0.39307,-0.15084 v -12.27903 -12.27903 l 0.43976,-0.36313 c 0.3368,-0.2781 1.3125,-0.34608 4.16719,-0.29033 2.05008,0.04 3.93578,0.13736 4.19044,0.21627 l 0.46303,0.14347 v 7.5311 7.5311 l -0.4083,0.15668 -0.4083,0.15668 0.40507,0.44759 0.40507,0.4476 0.0694,10.0369 0.0694,10.0369 7.9375,0.13229 7.9375,0.13229 1.2657,0.58439 c 2.77748,1.28238 2.52239,4.57499 -0.35444,4.57499 -0.52545,0 -1.02552,-0.0702 -1.11128,-0.15592 z M 289.12825,386.7398 c -10.35627,-2.15736 -16.8944,-10.27412 -16.31557,-20.25494 0.33918,-5.84853 1.83603,-9.25336 5.97506,-13.59125 2.60803,-2.73334 5.30396,-4.48572 8.64979,-5.62244 l 2.0876,-0.70925 2.77812,-0.02 c 3.26955,-0.0236 4.99282,0.34087 7.60725,1.60874 3.72899,1.80838 5.14087,4.67536 3.77941,7.67451 -0.63165,1.39147 -1.86524,2.18596 -3.39615,2.18729 -2.15319,0.002 -3.75717,-1.38328 -3.75717,-3.24459 v -1.05756 l 0.94488,-0.89113 c 0.51968,-0.49013 1.11499,-0.89114 1.32291,-0.89114 1.25358,0 -0.90253,-2.15246 -2.64471,-2.64024 -1.58975,-0.44511 -4.08466,-0.22757 -6.084,0.53047 -1.20819,0.45808 -2.0306,1.05425 -3.59847,2.60855 -3.26941,3.24111 -4.5437,6.39652 -5.14104,12.73039 l -0.31191,3.30729 0.44409,0.66146 c 0.24425,0.3638 0.81627,1.85208 1.27116,3.30729 1.05794,3.3844 2.35763,5.64658 4.3998,7.65813 1.95208,1.92279 4.02266,2.99199 6.72929,3.47483 2.72105,0.48542 3.10762,0.46596 3.76293,-0.18935 l 0.56577,-0.56577 -0.17673,-2.73368 -0.17674,-2.73368 0.52047,-0.52048 c 0.28626,-0.28626 0.4024,-0.55983 0.25809,-0.60793 -0.44407,-0.14802 -0.81061,-2.3841 -0.6308,-3.84822 l 0.17058,-1.38906 h -2.50427 -2.50427 l -0.1606,-0.41851 c -0.0883,-0.23019 -0.1606,-0.6469 -0.1606,-0.92605 v -0.50752 h 6.06652 6.06652 l 0.41577,0.41577 0.41577,0.41578 v 6.18766 6.18767 l -1.00833,1.05998 c -1.10096,1.15735 -3.51727,2.39851 -6.00312,3.08355 -2.12691,0.58613 -7.41574,0.73041 -9.6573,0.26346 z m 69.10917,-0.46887 c -0.21359,-0.21359 -0.3175,-1.41658 -0.3175,-3.67586 v -3.35836 l 0.43289,-0.16612 0.43289,-0.16611 -0.43289,-0.47834 c -0.53871,-0.59526 -0.54888,-1.7935 -0.12951,-15.25334 0.17229,-5.52979 0.22675,-10.61971 0.12102,-11.31093 l -0.19224,-1.25678 h -5.10111 c -5.31759,0 -7.06918,-0.26169 -8.12065,-1.21326 -1.06543,-0.9642 -0.26748,-3.7791 1.23299,-4.34958 0.9077,-0.34511 0.86413,-0.37249 0.95807,0.60191 l 0.0829,0.85989 14.55209,0.13229 14.55208,0.1323 1.05833,0.52916 c 1.46752,0.73376 2.03866,1.92346 1.922,4.00352 -0.10734,1.91372 -0.81398,3.12932 -2.42717,4.17533 -1.38778,0.89986 -3.69594,0.96609 -4.75081,0.13632 -1.19614,-0.94088 -0.80719,-1.73474 0.44722,-0.91282 1.17458,0.76962 3.34852,-0.38789 3.7471,-1.99512 0.11664,-0.47032 0.008,-0.87579 -0.35331,-1.32292 l -0.52149,-0.64472 -4.42424,-0.0844 c -2.43333,-0.0464 -4.51993,0.0131 -4.63688,0.1323 -0.11696,0.11918 -0.28597,8.01528 -0.37559,17.5469 -0.0896,9.53161 -0.22449,17.53857 -0.2997,17.79323 l -0.13674,0.46302 h -3.50113 c -2.37033,0 -3.60368,-0.10255 -3.81863,-0.3175 z m 69.20177,0.0317 -0.46302,-0.26968 v -2.60438 -2.60438 l 0.46302,-0.17839 0.46302,-0.17839 -0.48605,-0.27283 -0.48605,-0.27282 0.22088,-4.67032 c 0.32644,-6.90214 0.39011,-6.47954 -1.4896,-9.88701 -3.25516,-5.90086 -9.12464,-15.55311 -9.45776,-15.55311 -0.18698,0 -0.33996,0.22355 -0.33996,0.49678 0,0.27322 -0.178,0.64449 -0.39555,0.82504 l -0.39555,0.32828 -0.66278,-0.43427 c -2.28609,-1.49791 2.21027,-4.99684 5.88849,-4.58225 1.45682,0.1642 2.19869,0.69826 3.92162,2.82307 2.35314,2.90203 4.19945,6.06317 4.19945,7.19002 0,0.77737 0.11876,1.0321 0.53518,1.1479 0.3159,0.0879 1.05422,1.04536 1.80192,2.33686 0.69671,1.20341 1.54937,2.54154 1.89479,2.97361 l 0.62804,0.78559 0.71366,-0.66146 c 0.39252,-0.3638 2.55427,-3.41406 4.80389,-6.77835 2.24961,-3.3643 4.42628,-6.51945 4.83703,-7.01146 l 0.74681,-0.89456 h 1.72101 c 2.15305,0 2.90261,0.53109 2.78159,1.97085 l -0.079,0.93956 -0.52916,-0.0913 c -0.29105,-0.0502 -0.62439,-0.25859 -0.74076,-0.46302 -0.11636,-0.20443 -0.37041,-0.37169 -0.56451,-0.37169 -0.86334,0 -3.48166,3.64603 -8.48656,11.8176 l -2.9569,4.82776 -0.18738,9.58349 c -0.10306,5.27092 -0.24795,9.6815 -0.32198,9.80128 -0.19422,0.31425 -7.02684,0.25295 -7.57785,-0.068 z m -167.67038,-0.49058 c -0.18142,-0.339 -0.27389,-6.85741 -0.27389,-19.30848 v -18.79671 l 0.71493,-0.46912 c 0.88004,-0.57746 5.237,-0.80025 6.89881,-0.35277 l 1.09629,0.2952 0.15882,0.85256 c 0.0874,0.4689 0.12189,3.51148 0.0768,6.76128 l -0.0821,5.90873 -0.51359,0.37512 -0.51359,0.37513 h 0.41914 c 0.23053,0 0.49141,0.18833 0.57974,0.41852 0.0883,0.23018 0.16059,5.82612 0.16059,12.43541 v 12.01691 h -4.22402 -4.22402 z m 51.06538,0.002 c -0.2221,-0.415 -0.27227,-2.37846 -0.17833,-6.9789 0.0719,-3.52079 0.12698,-6.58003 0.12239,-6.79831 -0.005,-0.21828 -0.0603,-5.84445 -0.12373,-12.50259 l -0.11541,-12.10572 0.65092,-0.29658 c 0.44867,-0.20442 1.76717,-0.23679 4.24353,-0.10415 l 3.59261,0.19231 v 3.08903 c 0,2.35713 -0.0968,3.22725 -0.40865,3.67245 l -0.40865,0.58343 0.32287,0.59992 c 0.18603,0.34567 0.37385,2.0857 0.44316,4.10565 0.0786,2.28992 0.22303,3.52514 0.41651,3.56169 0.16292,0.0308 3.0045,0.0605 6.31462,0.0661 l 6.0184,0.0102 8e-4,-7.61332 7.9e-4,-7.61332 0.59531,-0.21965 c 0.97973,-0.36148 6.19692,-0.58096 6.95536,-0.2926 l 0.68977,0.26225 -0.0263,7.34145 c -0.0145,4.03779 0.0516,8.41906 0.14681,9.73616 0.0952,1.3171 0.0846,6.76421 -0.0237,12.10469 l -0.19666,9.70997 h -4.07022 -4.07021 v -3.38667 c 0,-2.1545 0.10822,-3.49489 0.29746,-3.68412 0.22021,-0.22022 0.22021,-0.51902 0,-1.15073 -0.18665,-0.53541 -0.29746,-3.10556 -0.29746,-6.89922 v -6.04593 l -5.6224,0.004 c -3.09231,0.002 -5.89028,0.0754 -6.2177,0.16316 l -0.59532,0.15953 -0.0145,4.53321 c -0.0226,7.09859 -0.41663,15.52116 -0.74121,15.84574 -0.16519,0.1652 -1.79985,0.33894 -3.83975,0.40813 l -3.55209,0.12047 -0.30905,-0.57747 z"
         transform="matrix(0.74610181,0,0,0.74610181,104.44288,194.95246)" />
      <path
         style="fill:#161320;fill-opacity:1;stroke-width:0.584886"
         d="m 264.87336,374.70726 v -68.43179 h 87.44063 87.44063 v 68.43179 68.4318 h -87.44063 -87.44063 z m 96.7222,57.03232 c 7.78501,-1.64937 14.63904,-4.8903 20.96985,-9.91563 5.82141,-4.62094 13.22974,-9.4303 16.19634,-22.25899 l 0.79343,-3.43104 c 0.4959,-2.51593 0.65003,-7.22169 0.65403,-11.76911 l -0.0796,-12.22785 0.82358,-0.82358 c 0.97093,-0.97094 0.55189,-2.83737 -1.00001,-4.45396 l -1.07676,-1.12163 -0.90922,0.75458 c -1.21384,1.00739 -1.1469,2.71221 0.19343,4.92897 l 1.10275,1.8237 0.38591,6.72621 0.38592,6.7262 -1.40149,-2.92444 c -0.77082,-1.60843 -2.4052,-4.2336 -3.63195,-5.83368 -1.22672,-1.6001 -2.71154,-4.51293 -3.29956,-6.47296 -2.3652,-7.88383 -7.81746,-13.08875 -15.99272,-15.26722 -1.60843,-0.42862 -5.43497,-0.7824 -8.50341,-0.78622 l -5.57897,-0.007 -2.29445,-1.16978 c -1.26194,-0.64337 -2.39251,-1.16976 -2.51236,-1.16976 -0.3959,0 3.62586,4.87749 7.00471,8.49517 3.85626,4.12882 6.82131,5.8713 15.41704,9.06005 3.42764,1.27155 8.15626,3.3741 10.50803,4.67229 l 4.27596,2.36039 1.79153,2.79187 c 2.53502,3.9505 3.57986,7.30245 3.57986,11.48456 0,3.42886 -1.3216,8.75972 -2.32546,9.38014 -0.25371,0.15673 -0.47534,-0.73199 -0.49249,-1.9751 -0.0376,-2.72306 -1.16968,-5.58742 -3.14577,-7.95926 -0.80404,-0.96508 -1.6335,-2.45844 -1.84327,-3.31859 -0.20978,-0.86016 -1.10518,-2.12889 -1.98984,-2.81942 -2.06921,-1.6151 -8.48131,-5.36534 -8.22742,-4.81196 1.76253,3.84176 4.27253,7.87282 5.50648,8.84343 0.85946,0.67607 2.2709,1.2292 3.13651,1.2292 2.80045,0 5.87194,4.73384 5.87194,9.04997 v 2.06887 l -3.94799,2.92097 c -4.73444,3.50287 -13.04668,7.6544 -18.27773,9.12875 -2.68729,0.7574 -4.71606,1.57065 -9.47051,1.56867 l -6.68953,-0.82177 -5.67252,-1.28082 c -10.94942,-2.47231 -18.94486,-11.57272 -23.92921,-22.55382 -2.00149,-4.40952 -3.94445,-12.98918 -3.92553,-17.33442 0.0243,-5.57837 1.58228,-12.084 4.132,-17.25353 l 2.4524,-4.97203 4.73593,-4.73055 c 5.35869,-5.35251 9.8573,-8.07809 17.31104,-10.48824 5.97484,-1.93195 6.19099,-2.04396 5.1802,-2.68444 -1.28836,-0.81635 -11.78443,-0.59182 -16.25043,0.34764 -18.50016,3.89162 -34.59006,21.70705 -37.63942,35.3581 l -1.25659,6.99776 -0.0268,6.49117 0.31592,7.14501 1.04106,6.3074 c 1.68849,10.23003 9.35862,19.63353 16.39951,25.47826 3.86974,3.21231 11.74251,7.62796 16.15369,9.06018 7.29809,2.36956 17.82648,2.97336 25.07352,1.43795 z m -8.40423,-1.33546 -2.04712,-0.2651 3.21688,-1.14332 c 1.7693,-0.62883 4.56243,-1.48802 6.20698,-1.90936 1.64455,-0.42132 4.33529,-1.77033 5.97942,-2.99779 1.64414,-1.22746 2.93059,-2.28589 2.85877,-2.3521 -0.0718,-0.0661 -1.97293,0.23824 -4.22476,0.67653 -2.2518,0.4383 -5.0154,0.80999 -6.1413,0.82597 -1.1259,0.0155 -3.71555,0.55205 -5.75476,1.19127 -4.03887,1.26605 -8.55685,1.4857 -11.83397,0.57533 -1.14909,-0.31921 -3.75954,-2.02687 -5.80103,-3.7948 -4.56086,-3.94969 -14.73095,-9.33268 -17.31423,-9.16432 -2.09976,0.13684 -4.38048,-1.82533 -6.14739,-5.28874 l -1.11257,-2.18082 3.75397,2.35373 c 2.0647,1.29455 3.90546,2.74853 4.09062,3.23103 0.27907,0.7272 7.14987,4.31796 8.26229,4.31796 0.36128,0 -3.91404,-5.37513 -7.00689,-8.80938 -1.03186,-1.14575 -2.77695,-2.6418 -3.878,-3.32452 -4.98733,-3.09251 -8.14497,-8.29409 -8.07914,-13.3087 0.0581,-4.42026 0.75541,-8.87119 1.26592,-8.07964 0.24606,0.3815 0.18547,1.82909 -0.13462,3.21686 -0.93493,4.0537 -0.69747,6.99108 0.83047,10.273 0.78629,1.68885 1.58007,3.07065 1.76397,3.07065 0.18392,0 -0.11009,-0.85539 -0.65316,-1.90087 -0.54317,-1.0455 -1.05596,-3.21688 -1.13954,-4.82534 l -0.15209,-2.92442 1.96539,4.24044 c 1.08096,2.33222 2.24422,4.24041 2.58505,4.24041 0.34081,0 1.01162,0.85541 1.49068,1.90089 l 0.87102,1.90089 -0.3512,-2.632 c -0.57171,-4.28456 -1.94754,-7.70667 -4.37194,-10.87444 -2.33837,-3.05535 -2.95876,-4.45466 -1.40221,-3.16285 l 0.87734,0.72812 v -1.31517 c 0,-3.41681 -1.95264,-12.71544 -2.97301,-14.15768 -0.61666,-0.87161 -1.12121,-1.98487 -1.12121,-2.47392 0,-1.0593 1.67999,-5.47777 2.6108,-6.8666 l 0.6583,-0.98219 -0.17751,5.07641 c -0.0977,2.79203 -0.20692,5.60543 -0.24295,6.25201 -0.036,0.64658 0.27022,2.75217 0.68047,4.67908 l 0.7459,3.50351 1.38708,-5.26398 c 0.7629,-2.8952 1.63814,-7.71452 1.94502,-10.70964 0.63941,-6.24093 1.93489,-9.56549 4.74805,-12.18485 1.98308,-1.84649 10.45544,-5.78905 10.45544,-4.86539 0,0.27148 -0.28037,0.66687 -0.62306,0.87867 -0.34269,0.21177 -1.52604,2.28741 -2.62966,4.61249 l -2.00658,4.22744 -4.38052,4.24753 c -3.23037,3.13233 -4.54638,4.8636 -5.01231,6.59392 -0.3475,1.29051 -0.53105,2.44713 -0.40787,2.57029 0.12313,0.12313 1.39064,-0.95091 2.81665,-2.38683 1.42599,-1.43591 2.94102,-2.61606 3.36672,-2.62252 1.21744,-0.0177 0.51615,1.99648 -0.78072,2.24316 -3.06099,0.58223 -6.45923,5.21011 -7.5781,10.32017 l -0.3842,1.75466 1.7702,-2.04712 c 0.97361,-1.1259 1.92899,-2.5077 2.12305,-3.07065 0.41003,-1.18946 3.19843,-1.41892 3.19843,-0.26319 0,1.04773 -1.21075,2.16408 -2.34708,2.16408 -1.03155,0 -3.56043,2.47079 -4.6001,4.49441 -1.05726,2.05791 -0.81299,6.84456 0.43074,8.44046 2.03448,2.61054 2.95415,5.03189 3.92339,10.32959 l 0.96804,5.29117 1.91614,1.85721 1.91615,1.85721 -0.29757,-2.82883 c -0.16358,-1.55589 -0.51639,-3.06659 -0.78381,-3.35712 -0.5381,-0.5846 0.37881,-2.68862 1.17166,-2.68862 0.87436,0 1.25922,1.87008 0.5586,2.71428 -1.55348,1.87182 0.71913,8.97587 3.78748,11.83954 l 1.4935,1.39385 -0.58682,-2.27117 c -0.32275,-1.24917 -0.88623,-2.87117 -1.2522,-3.60445 l -0.66539,-1.33325 0.92927,-0.92929 c 0.51111,-0.51109 1.21775,-0.75101 1.5703,-0.53311 0.82698,0.51109 0.82935,2.48126 0.004,2.99158 -1.39953,0.86496 0.78887,7.11372 3.19571,9.12503 1.81238,1.51455 2.29676,1.30545 1.1236,-0.48502 l -1.02417,-1.56309 1.60688,1.05286 c 0.98352,0.64443 3.47442,1.2386 6.4209,1.53163 l 4.814,0.47878 5.26398,2.61241 5.26399,2.61244 2.632,-0.40193 2.63198,-0.40193 -3.50386,-1.75369 c -1.92714,-0.96455 -3.59143,-2.20832 -3.69844,-2.76395 -0.30803,-1.59948 0.9773,-1.18227 3.01545,0.97881 2.24782,2.38337 5.82605,3.49548 9.48256,2.94716 1.43014,-0.21442 2.60028,-0.5658 2.60028,-0.78071 0,-0.21487 -1.25021,-0.73494 -2.77821,-1.15555 -1.52804,-0.42061 -3.10722,-0.86461 -3.50933,-0.98665 -0.8524,-0.25878 -1.00222,-2.59818 -0.16623,-2.59818 0.31058,0 1.35463,0.77216 2.32006,1.71588 1.1996,1.17268 2.61976,1.84554 4.48568,2.12536 l 2.73033,0.40942 2.56878,-1.24799 c 3.69791,-1.7966 4.54572,-1.48656 1.06104,0.38803 -4.43958,2.38826 -11.93225,7.83281 -12.27785,8.9217 -0.62596,1.97223 -3.54578,2.57108 -9.05629,1.85746 z m 7.86672,-1.34374 c 0.34879,-0.34116 0.28152,-0.54349 -0.18082,-0.54349 -0.40501,0 -0.57558,-0.26019 -0.37906,-0.57821 0.19653,-0.31799 0.0155,-0.45739 -0.40414,-0.30979 -0.41882,0.14767 -1.54215,0.55453 -2.49634,0.90422 l -1.73483,0.63581 0.85751,0.55714 c 0.92558,0.60135 3.43616,0.21597 4.33759,-0.66568 z m -3.57756,0.23636 c 0.21443,-0.21443 0.5654,-0.21443 0.77985,0 0.21443,0.21443 0.0389,0.38993 -0.38992,0.38993 -0.42893,0 -0.60438,-0.17552 -0.38993,-0.38993 z m 1.75466,-0.5849 c 0.21443,-0.21443 0.5654,-0.21443 0.77985,0 0.21443,0.21443 0.0389,0.38992 -0.38992,0.38992 -0.42893,0 -0.60438,-0.17552 -0.38993,-0.38992 z m -12.77002,-3.99499 c -0.32169,-0.10921 -1.56789,-0.36272 -2.76931,-0.56355 -1.20143,-0.20094 -3.02345,-1.13152 -4.04893,-2.06815 l -1.8645,-1.70295 2.58671,0.76391 c 3.74868,1.10707 6.97335,1.53007 6.97335,0.91473 0,-0.31205 0.62303,-0.29678 1.50028,0.0367 2.6682,1.01445 2.94748,0.59538 0.54682,-0.82046 -3.24965,-1.91657 -7.5403,-3.16173 -11.80475,-3.42574 l -3.61631,-0.22391 0.49765,0.91182 c 1.8061,3.30914 7.10654,6.43989 10.82921,6.39639 0.96505,-0.011 1.49146,-0.10987 1.16978,-0.21885 z m -3.80179,-4.12526 -2.63198,-0.75388 1.75466,-0.0199 c 0.96506,-0.011 2.54427,0.34085 3.50933,0.78275 2.17834,0.99744 0.86471,0.99335 -2.63201,-0.009 z m -5.70263,-1.2512 c 0.56295,-0.14701 1.48415,-0.14701 2.0471,0 0.56295,0.14722 0.10235,0.26748 -1.02355,0.26748 -1.1259,0 -1.5865,-0.12026 -1.02355,-0.26748 z m 10.46474,3.83423 c -1.49325,-0.20381 -3.76778,-0.548 -5.05455,-0.76471 l -2.33954,-0.39399 1.05247,0.66373 c 0.57884,0.36506 2.48705,0.8118 4.24043,0.99276 1.75338,0.18104 3.18797,0.56578 3.18797,0.85514 0,0.28937 0.36634,0.1868 0.81412,-0.22804 l 0.81412,-0.75417 z m 6.93564,-5.1857 c 0,-0.32169 -0.26319,-0.58491 -0.58488,-0.58491 -0.32168,0 -0.58488,0.26322 -0.58488,0.58491 0,0.32168 0.2632,0.58488 0.58488,0.58488 0.32169,0 0.58488,-0.2632 0.58488,-0.58488 z m 8.77331,0.0626 c 0,-0.28729 -0.39479,-0.67382 -0.87732,-0.859 -0.53443,-0.20514 -0.87734,-10e-4 -0.87734,0.52232 0,0.47243 0.39481,0.85897 0.87734,0.85897 0.48253,0 0.87732,-0.23503 0.87732,-0.52229 z m -46.49852,-7.66613 c -1.88433,-1.24793 -1.61238,-1.56248 0.47712,-0.55186 l 1.27754,0.61791 -1.3808,-1.20279 c -1.66635,-1.45154 -2.36549,-1.53008 -2.17682,-0.24455 0.15032,1.02405 1.91464,2.55359 2.9383,2.54722 0.34061,-0.002 -0.17021,-0.52678 -1.13534,-1.16593 z m 11.40529,-3.76724 c 0,-0.46354 -0.24502,-0.99423 -0.54447,-1.17931 -0.69536,-0.42976 -1.39473,0.66546 -0.91775,1.43722 0.53784,0.87025 1.46222,0.7072 1.46222,-0.25791 z m -5.26398,-7.31108 c 0,-0.30272 -0.2632,-0.71305 -0.58488,-0.91185 -0.32169,-0.19873 -0.5849,0.0489 -0.5849,0.55035 0,0.50152 0.26321,0.91185 0.5849,0.91185 0.32168,0 0.58488,-0.24765 0.58488,-0.55035 z m -9.87969,-4.11145 c -1.16076,-2.24229 -2.1984,-3.82099 -2.30583,-3.50824 -0.30049,0.87485 3.03214,7.58516 3.76712,7.58516 0.35706,0 -0.30051,-1.8346 -1.46129,-4.07692 z m 6.37036,-22.89046 c 0,-0.28727 -0.39479,-0.52232 -0.87732,-0.52232 -0.48255,0 -0.87734,0.38654 -0.87734,0.85899 0,0.52323 0.34291,0.72737 0.87734,0.5223 0.48253,-0.18525 0.87732,-0.57171 0.87732,-0.85897 z m -8.78226,-6.57998 c -0.004,-0.68937 -0.2641,-1.64822 -0.57592,-2.13075 l -0.56698,-0.87734 -0.009,1.02355 c -0.004,0.56295 -0.27217,1.02355 -0.59385,1.02355 -0.63007,0 -0.81103,1.91847 -0.23526,2.49422 0.69451,0.69452 1.98972,-0.30794 1.98096,-1.53323 z m -1.7457,-0.0836 c 0,-0.16093 0.13153,-0.29244 0.29244,-0.29244 0.16093,0 0.29244,0.13153 0.29244,0.29244 0,0.16093 -0.13154,0.29244 -0.29244,0.29244 -0.16094,0 -0.29244,-0.13153 -0.29244,-0.29244 z m 12.86751,-1.46222 c 0,-0.32169 -0.2632,-0.58488 -0.58488,-0.58488 -0.32169,0 -0.58488,0.26319 -0.58488,0.58488 0,0.32168 0.26319,0.58488 0.58488,0.58488 0.32168,0 0.58488,-0.2632 0.58488,-0.58488 z m 4.2401,-12.9203 c 1.20614,-2.38362 2.19315,-4.52191 2.19333,-4.75174 4.4e-4,-0.55546 -4.99062,1.60376 -6.93929,3.00207 -1.50484,1.07984 -4.41314,5.30568 -3.08765,4.48648 0.89231,-0.55148 0.81297,0.20868 -0.20824,1.99506 -0.45973,0.80424 -0.8452,1.83893 -0.8566,2.29935 -0.0111,0.46043 1.00578,-0.85556 2.26038,-2.92442 2.33916,-3.85731 2.65309,-5.46897 0.56012,-2.8755 -0.64514,0.7994 -1.06664,1.05868 -0.93668,0.57615 0.2338,-0.8679 4.63079,-4.18762 5.02474,-3.79367 0.11229,0.1123 -0.74288,1.44445 -1.90034,2.96036 -1.15747,1.5159 -2.10451,3.02233 -2.10451,3.34762 0,1.09033 2.45809,-1.60719 4.15656,-4.56141 1.80135,-3.13319 2.31129,-3.2133 0.74594,-0.11716 -1.62361,3.21131 -3.8085,5.76968 -4.65127,5.44627 -0.43925,-0.16845 -0.9542,-0.0548 -1.14434,0.25287 -0.19011,0.30765 -0.0221,0.55935 0.37567,0.55935 0.41336,0 0.1784,0.578 -0.55037,1.3537 -2.35683,2.50872 -1.29554,2.32756 1.79892,-0.3071 2.16384,-1.84231 3.71829,-3.89425 5.26365,-6.94826 z m -8.33431,3.85455 c 0,-0.16093 -0.13153,-0.29244 -0.29244,-0.29244 -0.16093,0 -0.29244,0.13153 -0.29244,0.29244 0,0.16093 0.13153,0.29244 0.29244,0.29244 0.16093,0 0.29244,-0.13153 0.29244,-0.29244 z m 4.67911,-4.0942 c 0,-0.16093 -0.13153,-0.29246 -0.29244,-0.29246 -0.16093,0 -0.29246,0.13153 -0.29246,0.29246 0,0.16093 0.13153,0.29244 0.29246,0.29244 0.16093,0 0.29244,-0.13153 0.29244,-0.29244 z m 8.1884,72.526 c 0,-0.16093 0.13153,-0.29244 0.29246,-0.29244 0.16094,0 0.29244,0.13153 0.29244,0.29244 0,0.16093 -0.13153,0.29244 -0.29244,0.29244 -0.16093,0 -0.29246,-0.13153 -0.29246,-0.29244 z m 49.54289,-5.70266 c -0.23906,-0.88463 -0.73361,-1.60843 -1.09905,-1.60843 -0.36948,0 -0.2047,-0.50784 0.37103,-1.14412 l 1.03542,-1.14411 0.90476,0.90475 c 0.59635,0.59635 0.69315,1.03617 0.28397,1.29033 -0.34143,0.21199 -0.71995,1.0436 -0.84113,1.84781 l -0.2204,1.46222 z m 5.43652,-5.11775 c 0,-0.32169 0.26319,-0.5849 0.58488,-0.5849 0.32168,0 0.5849,0.26321 0.5849,0.5849 0,0.32168 -0.26322,0.58488 -0.5849,0.58488 -0.32169,0 -0.58488,-0.2632 -0.58488,-0.58488 z m -53.80963,-2.95895 c 0,-0.34068 0.2632,-0.45676 0.58488,-0.25793 0.32171,0.19873 0.58491,0.47755 0.58491,0.6194 0,0.14193 -0.2632,0.25792 -0.58491,0.25792 -0.32168,0 -0.58488,-0.27872 -0.58488,-0.61939 z m -17.5041,-15.92108 c -0.36243,-1.09815 -1.45024,-3.2872 -2.41738,-4.8645 -1.14935,-1.8745 -1.31696,-2.36136 -0.4839,-1.40563 1.46377,1.67932 4.29385,7.5332 3.85442,7.97263 -0.16181,0.16181 -0.59071,-0.60432 -0.95314,-1.7025 z m 6.97614,-2.76081 c 0,-0.32169 0.27873,-0.58488 0.6194,-0.58488 0.34068,0 0.45674,0.26319 0.25794,0.58488 -0.19874,0.32171 -0.47756,0.5849 -0.61941,0.5849 -0.14192,0 -0.25793,-0.26319 -0.25793,-0.5849 z m 65.83774,-2.67759 c -0.50762,-0.50762 -1.20433,-1.44873 -1.54825,-2.09138 l -0.62534,-1.16843 1.36027,0.67541 c 0.98142,0.48728 0.80879,0.17375 -0.61987,-1.12551 -2.33212,-2.12102 -2.06802,-2.23947 1.27233,-0.57073 2.54039,1.2691 4.4738,3.19215 4.49657,4.47248 0.0177,1.05399 -3.23377,0.91008 -4.33571,-0.19188 z m 2.59405,-0.53927 c 0,-0.16093 -0.13153,-0.29246 -0.29244,-0.29246 -0.16093,0 -0.29244,0.13153 -0.29244,0.29246 0,0.16093 0.13153,0.29244 0.29244,0.29244 0.16093,0 0.29244,-0.13153 0.29244,-0.29244 z m -1.16976,-0.5849 c 0,-0.16093 -0.13153,-0.29244 -0.29246,-0.29244 -0.16093,0 -0.29244,0.13153 -0.29244,0.29244 0,0.16093 0.13153,0.29244 0.29244,0.29244 0.16093,0 0.29246,-0.13153 0.29246,-0.29244 z m -70.10681,-0.98902 c -0.0438,-0.86567 -0.31801,-1.72124 -0.60933,-1.90129 -0.30541,-0.18879 -0.24937,-0.92131 0.13242,-1.73028 l 0.66209,-1.40294 0.79569,1.13601 c 0.53759,0.76754 0.60769,1.365 0.21597,1.842 -0.31879,0.38829 -0.70058,1.36398 -0.84845,2.1682 l -0.26883,1.46222 z m 69.32024,-13.11307 c -2.20189,-1.12988 -6.28148,-2.85724 -9.06575,-3.83857 -2.78427,-0.98132 -6.0867,-2.30552 -7.33872,-2.94268 -2.57212,-1.30896 -7.16236,-5.43203 -9.91055,-8.90189 l -1.84151,-2.32511 1.16536,0.49126 c 0.64096,0.2702 4.45535,0.65427 8.47647,0.85349 l 7.31108,0.36223 3.47747,1.70203 c 5.52713,2.70524 9.49084,7.39186 11.16544,13.20181 l 0.42145,1.46223 -1.39087,-1.52764 c -0.76497,-0.8402 -1.68191,-2.02327 -2.03761,-2.62902 -0.35573,-0.60574 -1.01372,-1.10271 -1.46222,-1.10434 -0.44851,-0.002 -1.99987,-0.71034 -3.44745,-1.57488 -3.18939,-1.9048 -14.6222,-5.73426 -14.6222,-4.89777 0,0.15341 1.90821,0.83892 4.24044,1.52347 7.17807,2.1069 12.07054,4.79213 15.86864,8.70949 1.89187,1.95129 3.33948,3.53485 3.21688,3.51903 -0.12269,-0.0155 -2.02447,-0.95323 -4.22635,-2.08314 z m 1.07901,-0.81252 c -0.19873,-0.32169 -0.67496,-0.58086 -1.05808,-0.57593 -0.41855,0.004 -0.3464,0.23525 0.18083,0.57593 1.12364,0.72616 1.32611,0.72616 0.87734,0 z m -2.0471,-0.84282 c 0,-0.14192 -0.30387,-0.44572 -0.67527,-0.67527 -0.41836,-0.25855 -0.51649,-0.16049 -0.25791,0.25794 0.4167,0.67423 0.93318,0.90521 0.93318,0.41733 z m -2.65126,-1.52789 c -0.43904,-0.7104 -6.52765,-3.49777 -7.51083,-3.43846 -0.36208,0.0221 1.18406,0.92105 3.43588,1.99823 4.83308,2.31193 4.5524,2.21274 4.07495,1.44023 z m 1.58871,-4.18979 c -0.4197,-0.41969 -0.69211,-0.45421 -0.69211,-0.0878 0,0.78069 0.69167,1.47239 1.08202,1.08204 0.16624,-0.16624 -0.009,-0.61364 -0.38991,-0.99433 z m -10.89322,-0.18437 c -0.62443,-0.47231 -1.41403,-0.84942 -1.75466,-0.83801 -0.34061,0.0111 0.0387,0.39687 0.8429,0.8566 1.89459,1.08306 2.35583,1.07365 0.91176,-0.0177 z m -2.66642,-1.44363 c 0,-0.32168 -0.27874,-0.58488 -0.61941,-0.58488 -0.34068,0 -0.45673,0.2632 -0.25791,0.58488 0.19873,0.32169 0.47753,0.58488 0.61941,0.58488 0.14192,0 0.25791,-0.26319 0.25791,-0.58488 z m 10.77772,-0.89655 c -2.24853,-1.7645 -5.46035,-3.17344 -7.94584,-3.48562 l -2.53944,-0.31895 3.21688,0.89985 c 1.76929,0.4949 4.26968,1.64437 5.55642,2.55439 2.37803,1.68173 3.77214,1.96703 1.71198,0.35033 z m -11.3626,-3.78255 c 0,-0.32169 -0.85539,-0.55373 -1.9009,-0.51569 l -1.90087,0.0692 1.75467,0.44648 c 0.96505,0.24557 1.82044,0.47764 1.90087,0.51568 0.0805,0.038 0.14612,-0.19409 0.14612,-0.51568 z m -4.87406,-0.38991 c -0.21443,-0.21443 -0.5654,-0.21443 -0.77985,0 -0.21443,0.21443 -0.0389,0.38991 0.38992,0.38991 0.42892,0 0.60438,-0.17552 0.38993,-0.38991 z m 31.75441,10.87218 c -0.76743,-1.43394 -0.35544,-2.87872 0.82086,-2.87872 0.91081,0 1.54315,1.21792 1.54315,2.97225 0,1.49415 -1.54709,1.43293 -2.36401,-0.0935 z m -11.67328,-1.4165 c 0,-0.16093 0.13153,-0.29247 0.29244,-0.29247 0.16093,0 0.29244,0.13154 0.29244,0.29247 0,0.16093 -0.13153,0.29244 -0.29244,0.29244 -0.16093,0 -0.29244,-0.13153 -0.29244,-0.29244 z m -53.722,-23.71719 c -0.0482,-0.82031 -0.37244,-1.77626 -0.72054,-2.12436 -0.45395,-0.45397 -0.42185,-0.97087 0.11362,-1.82816 l 0.74646,-1.19525 0.71543,0.97841 c 0.39356,0.53823 0.49734,1.24229 0.23066,1.56497 -0.26662,0.32259 -0.60022,1.37614 -0.74133,2.3412 l -0.25658,1.75466 z m 5.76124,-6.40452 c 0,-0.4289 0.17552,-0.60438 0.38993,-0.38993 0.21442,0.21443 0.21442,0.56541 0,0.77986 -0.21443,0.21443 -0.38993,0.0389 -0.38993,-0.38993 z m 40.83877,64.53228 c -0.28457,-1.46735 -1.65132,-1.66882 -1.65132,-0.24343 0,0.71844 0.37764,1.21853 0.92021,1.21853 0.54467,0 0.84303,-0.39796 0.73111,-0.9751 z m -15.10373,-7.66807 c 0,-2.08473 1.49801,-4.22437 2.9576,-4.22437 0.62514,0 1.1366,-0.26319 1.1366,-0.58488 0,-0.32168 -0.43986,-0.58488 -0.9775,-0.58488 -0.53762,0 -1.45882,-0.43559 -2.0471,-0.96797 -0.58829,-0.5324 -1.0696,-0.67709 -1.0696,-0.32151 0,0.35555 0.43279,0.88866 0.96174,1.1847 l 0.96177,0.53822 -1.10798,1.51956 c -1.24485,1.70727 -1.98531,1.97134 -1.98531,0.70805 0,-0.46654 -0.44232,-1.09581 -0.98296,-1.39835 l -0.98297,-0.55011 0.83676,-0.92089 c 1.99159,-2.19187 2.29895,-2.7472 2.29895,-4.15367 0,-0.81779 -0.26319,-1.48691 -0.58488,-1.48691 -0.32171,0 -0.5849,0.73104 -0.5849,1.62452 0,2.08475 -1.49801,4.22436 -2.9576,4.22436 -0.62514,0 -1.1366,0.2632 -1.1366,0.58488 0,0.32169 0.51146,0.58488 1.1366,0.58488 1.45959,0 2.9576,2.13964 2.9576,4.22437 0,0.89348 0.26319,1.62452 0.5849,1.62452 0.32169,0 0.58488,-0.73104 0.58488,-1.62452 z m -21.05594,-8.31857 c 0,-0.32169 -0.27873,-0.58488 -0.61941,-0.58488 -0.34067,0 -0.45673,0.26319 -0.25793,0.58488 0.19873,0.32169 0.47756,0.58488 0.61941,0.58488 0.14192,0 0.25793,-0.26319 0.25793,-0.58488 z m 17.40056,-13.89075 c 0.31979,-0.96046 -1.5128,-1.64608 -2.29882,-0.86005 -0.33638,0.33636 -0.42574,0.91229 -0.19851,1.27982 0.51677,0.83616 2.17187,0.55798 2.49742,-0.41977 z m -16.2308,-8.66192 c 0,-0.9651 -0.92436,-1.12817 -1.4622,-0.25793 -0.47698,0.77177 0.22237,1.86701 0.91773,1.43724 0.29947,-0.18502 0.54447,-0.71577 0.54447,-1.17931 z m 47.17945,-11.11766 c 0.48748,-1.27034 -0.75008,-2.46502 -1.63591,-1.57919 -0.74866,0.74867 -0.28486,2.49583 0.66256,2.49583 0.34187,0 0.77988,-0.41247 0.97335,-0.91664 z m -16.03415,-14.10246 1.00722,-1.00722 -1.22768,-1.30681 c -0.67523,-0.71876 -1.43423,-2.17941 -1.68666,-3.24591 l -0.45897,-1.93909 -0.0599,1.92746 c -0.0365,1.17469 -0.58891,2.45648 -1.41445,3.28205 l -1.35459,1.35459 1.35459,1.20657 c 0.86403,0.76959 1.37678,1.91097 1.41591,3.15169 l 0.0612,1.94515 0.67799,-2.18065 c 0.37288,-1.19933 1.13123,-2.63388 1.68518,-3.18783 z"
         id="path8431"
         sodipodi:nodetypes="ccccccccccsscccsscsscccssssscssssscssssssssssscssccsssscssssscccsssccccssssscssssscsssssssssssscssscssscsssscssscsssssscsssscsscssssssscccssssscsscsscsscsscccccsssssssssscsssscssssscsssssssssssssscssssscssssccssscsssssscsssscssssssssssssscssssssssssssssssssssssssccssssssssssssssssssscssssssssssssssssssssssssssssssssscssscssssssssssssssssssssssscssscssssssssssssssscssscssssscsscsscsssssssssscsssssssssssssssscssccssssssscssssscssssssssssssssssssssscssscsssssssssssssssscssscssssssssssssssssssssssssssssccsscsscsscssc" />
      <path
         style="fill:#e5e9f0;fill-opacity:1;stroke-width:0.264583"
         d="m 273.61581,472.53748 c -1.20355,-1.20054 -5.20833,-5.57609 -8.89951,-9.72343 -7.49593,-8.42229 -13.1806,-14.28751 -13.8477,-14.28751 h -0.44181 v 9.88027 9.88026 l -0.61502,1.16609 c -0.92952,1.7624 -1.98862,2.35672 -4.19974,2.35672 -2.2273,0 -3.2855,-0.48545 -3.81366,-1.7495 l -0.38465,-0.9206 0.33935,-0.69594 c 0.47063,-0.96515 0.7967,-0.98988 1.30365,-0.0989 0.49564,0.87113 1.75198,1.27697 2.58048,0.83358 0.29321,-0.15692 0.65671,-0.7304 0.80779,-1.27439 0.17726,-0.63826 0.27521,-7.30006 0.27616,-18.7823 l 0.001,-17.79323 h 0.56572 c 0.31115,0 1.11482,0.5035 1.78594,1.11888 2.27487,2.08597 6.428,6.68129 6.93963,7.67851 0.27997,0.54571 0.63079,0.99219 0.77958,0.99219 0.50251,0 2.95947,2.49735 5.17405,5.2591 2.35577,2.93781 9.62297,10.88048 9.95517,10.88048 0.32272,0 0.23939,-21.41072 -0.0879,-22.58952 -0.15668,-0.56429 -0.58274,-1.32385 -0.9468,-1.6879 l -0.66192,-0.66193 -1.71719,0.17593 -1.71719,0.17593 0.0858,-0.60469 c 0.13053,-0.92013 2.21034,-1.56588 4.64685,-1.44277 l 1.91524,0.0968 1.25976,0.76894 c 0.90868,0.55463 1.44411,1.13723 1.92122,2.09045 l 0.66146,1.32151 -0.023,8.06979 c -0.0127,4.43839 -0.0252,8.24839 -0.028,8.46667 -0.003,0.21828 0.04,5.39718 0.095,11.50867 l 0.0999,11.1118 -0.45326,0.33143 c -0.24928,0.18229 -0.61419,0.33144 -0.8109,0.33144 -0.19671,0 -1.34238,-0.98227 -2.54594,-2.18282 z m 157.45367,1.49773 c -0.0858,-0.0858 -0.0929,-0.54439 -0.0158,-1.01918 0.1098,-0.67661 0.0339,-0.90426 -0.3512,-1.05288 -0.27021,-0.10429 -5.50848,-0.17799 -11.64062,-0.16376 -7.82923,0.0181 -11.34634,-0.0639 -11.81092,-0.27558 -1.12655,-0.51329 -1.24913,-1.22066 -1.24913,-7.20814 v -5.61722 l 0.39307,-0.56119 0.39307,-0.56118 -0.39307,-0.15084 -0.39307,-0.15084 v -12.27903 -12.27903 l 0.43976,-0.36313 c 0.3368,-0.2781 1.3125,-0.34608 4.16719,-0.29033 2.05008,0.04 3.93578,0.13736 4.19044,0.21627 l 0.46303,0.14347 v 7.5311 7.5311 l -0.4083,0.15668 -0.4083,0.15668 0.40507,0.44759 0.40507,0.4476 0.0694,10.0369 0.0694,10.0369 7.9375,0.13229 7.9375,0.13229 1.2657,0.58439 c 2.77748,1.28238 2.52239,4.57499 -0.35444,4.57499 -0.52545,0 -1.02552,-0.0702 -1.11128,-0.15592 z m -119.25936,-2.07396 c -10.35627,-2.15736 -16.8944,-10.27412 -16.31557,-20.25494 0.33918,-5.84853 1.83603,-9.25336 5.97506,-13.59125 2.60803,-2.73334 5.30396,-4.48572 8.64979,-5.62244 l 2.0876,-0.70925 2.77812,-0.02 c 3.26955,-0.0236 4.99282,0.34087 7.60725,1.60874 3.72899,1.80838 5.14087,4.67536 3.77941,7.67451 -0.63165,1.39147 -1.86524,2.18596 -3.39615,2.18729 -2.15319,0.002 -3.75717,-1.38328 -3.75717,-3.24459 v -1.05756 l 0.94488,-0.89113 c 0.51968,-0.49013 1.11499,-0.89114 1.32291,-0.89114 1.25358,0 -0.90253,-2.15246 -2.64471,-2.64024 -1.58975,-0.44511 -4.08466,-0.22757 -6.084,0.53047 -1.20819,0.45808 -2.0306,1.05425 -3.59847,2.60855 -3.26941,3.24111 -4.5437,6.39652 -5.14104,12.73039 l -0.31191,3.30729 0.44409,0.66146 c 0.24425,0.3638 0.81627,1.85208 1.27116,3.30729 1.05794,3.3844 2.35763,5.64658 4.3998,7.65813 1.95208,1.92279 4.02266,2.99199 6.72929,3.47483 2.72105,0.48542 3.10762,0.46596 3.76293,-0.18935 l 0.56577,-0.56577 -0.17673,-2.73368 -0.17674,-2.73368 0.52047,-0.52048 c 0.28626,-0.28626 0.4024,-0.55983 0.25809,-0.60793 -0.44407,-0.14802 -0.81061,-2.3841 -0.6308,-3.84822 l 0.17058,-1.38906 h -2.50427 -2.50427 l -0.1606,-0.41851 c -0.0883,-0.23019 -0.1606,-0.6469 -0.1606,-0.92605 v -0.50752 h 6.06652 6.06652 l 0.41577,0.41577 0.41577,0.41578 v 6.18766 6.18767 l -1.00833,1.05998 c -1.10096,1.15735 -3.51727,2.39851 -6.00312,3.08355 -2.12691,0.58613 -7.41574,0.73041 -9.6573,0.26346 z m 69.10917,-0.46887 c -0.21359,-0.21359 -0.3175,-1.41658 -0.3175,-3.67586 v -3.35836 l 0.43289,-0.16612 0.43289,-0.16611 -0.43289,-0.47834 c -0.53871,-0.59526 -0.54888,-1.7935 -0.12951,-15.25334 0.17229,-5.52979 0.22675,-10.61971 0.12102,-11.31093 l -0.19224,-1.25678 h -5.10111 c -5.31759,0 -7.06918,-0.26169 -8.12065,-1.21326 -1.06543,-0.9642 -0.26748,-3.7791 1.23299,-4.34958 0.9077,-0.34511 0.86413,-0.37249 0.95807,0.60191 l 0.0829,0.85989 14.55209,0.13229 14.55208,0.1323 1.05833,0.52916 c 1.46752,0.73376 2.03866,1.92346 1.922,4.00352 -0.10734,1.91372 -0.81398,3.12932 -2.42717,4.17533 -1.38778,0.89986 -3.69594,0.96609 -4.75081,0.13632 -1.19614,-0.94088 -0.80719,-1.73474 0.44722,-0.91282 1.17458,0.76962 3.34852,-0.38789 3.7471,-1.99512 0.11664,-0.47032 0.008,-0.87579 -0.35331,-1.32292 l -0.52149,-0.64472 -4.42424,-0.0844 c -2.43333,-0.0464 -4.51993,0.0131 -4.63688,0.1323 -0.11696,0.11918 -0.28597,8.01528 -0.37559,17.5469 -0.0896,9.53161 -0.22449,17.53857 -0.2997,17.79323 l -0.13674,0.46302 h -3.50113 c -2.37033,0 -3.60368,-0.10255 -3.81863,-0.3175 z m 69.20177,0.0317 -0.46302,-0.26968 v -2.60438 -2.60438 l 0.46302,-0.17839 0.46302,-0.17839 -0.48605,-0.27283 -0.48605,-0.27282 0.22088,-4.67032 c 0.32644,-6.90214 0.39011,-6.47954 -1.4896,-9.88701 -3.25516,-5.90086 -9.12464,-15.55311 -9.45776,-15.55311 -0.18698,0 -0.33996,0.22355 -0.33996,0.49678 0,0.27322 -0.178,0.64449 -0.39555,0.82504 l -0.39555,0.32828 -0.66278,-0.43427 c -2.28609,-1.49791 2.21027,-4.99684 5.88849,-4.58225 1.45682,0.1642 2.19869,0.69826 3.92162,2.82307 2.35314,2.90203 4.19945,6.06317 4.19945,7.19002 0,0.77737 0.11876,1.0321 0.53518,1.1479 0.3159,0.0879 1.05422,1.04536 1.80192,2.33686 0.69671,1.20341 1.54937,2.54154 1.89479,2.97361 l 0.62804,0.78559 0.71366,-0.66146 c 0.39252,-0.3638 2.55427,-3.41406 4.80389,-6.77835 2.24961,-3.3643 4.42628,-6.51945 4.83703,-7.01146 l 0.74681,-0.89456 h 1.72101 c 2.15305,0 2.90261,0.53109 2.78159,1.97085 l -0.079,0.93956 -0.52916,-0.0913 c -0.29105,-0.0502 -0.62439,-0.25859 -0.74076,-0.46302 -0.11636,-0.20443 -0.37041,-0.37169 -0.56451,-0.37169 -0.86334,0 -3.48166,3.64603 -8.48656,11.8176 l -2.9569,4.82776 -0.18738,9.58349 c -0.10306,5.27092 -0.24795,9.6815 -0.32198,9.80128 -0.19422,0.31425 -7.02684,0.25295 -7.57785,-0.068 z M 282.45068,471.0335 c -0.18142,-0.339 -0.27389,-6.85741 -0.27389,-19.30848 v -18.79671 l 0.71493,-0.46912 c 0.88004,-0.57746 5.237,-0.80025 6.89881,-0.35277 l 1.09629,0.2952 0.15882,0.85256 c 0.0874,0.4689 0.12189,3.51148 0.0768,6.76128 l -0.0821,5.90873 -0.51359,0.37512 -0.51359,0.37513 h 0.41914 c 0.23053,0 0.49141,0.18833 0.57974,0.41852 0.0883,0.23018 0.16059,5.82612 0.16059,12.43541 v 12.01691 h -4.22402 -4.22402 z m 51.06538,0.002 c -0.2221,-0.415 -0.27227,-2.37846 -0.17833,-6.9789 0.0719,-3.52079 0.12698,-6.58003 0.12239,-6.79831 -0.005,-0.21828 -0.0603,-5.84445 -0.12373,-12.50259 l -0.11541,-12.10572 0.65092,-0.29658 c 0.44867,-0.20442 1.76717,-0.23679 4.24353,-0.10415 l 3.59261,0.19231 v 3.08903 c 0,2.35713 -0.0968,3.22725 -0.40865,3.67245 l -0.40865,0.58343 0.32287,0.59992 c 0.18603,0.34567 0.37385,2.0857 0.44316,4.10565 0.0786,2.28992 0.22303,3.52514 0.41651,3.56169 0.16292,0.0308 3.0045,0.0605 6.31462,0.0661 l 6.0184,0.0102 8e-4,-7.61332 7.9e-4,-7.61332 0.59531,-0.21965 c 0.97973,-0.36148 6.19692,-0.58096 6.95536,-0.2926 l 0.68977,0.26225 -0.0263,7.34145 c -0.0145,4.03779 0.0516,8.41906 0.14681,9.73616 0.0952,1.3171 0.0846,6.76421 -0.0237,12.10469 l -0.19666,9.70997 h -4.07022 -4.07021 v -3.38667 c 0,-2.1545 0.10822,-3.49489 0.29746,-3.68412 0.22021,-0.22022 0.22021,-0.51902 0,-1.15073 -0.18665,-0.53541 -0.29746,-3.10556 -0.29746,-6.89922 v -6.04593 l -5.6224,0.004 c -3.09231,0.002 -5.89028,0.0754 -6.2177,0.16316 l -0.59532,0.15953 -0.0145,4.53321 c -0.0226,7.09859 -0.41663,15.52116 -0.74121,15.84574 -0.16519,0.1652 -1.79985,0.33894 -3.83975,0.40813 l -3.55209,0.12047 -0.30905,-0.57747 z"
         id="path1868"
         clip-path="url(#clipPath1876)"
         transform="translate(16.695687,9.3001669)" />
      <rect
         style="fill:#161320;fill-opacity:1;stroke-width:0.245985"
         id="rect18011"
         width="31.171505"
         height="47.204967"
         x="413.10867"
         y="440.56284" />
      <path
         style="fill:#e5e9f0;fill-opacity:1;stroke-width:0.264583"
         d="m 92.474578,397.55944 c -1.20355,-1.20054 -5.20833,-5.57609 -8.89951,-9.72343 -7.49593,-8.42229 -13.1806,-14.28751 -13.8477,-14.28751 h -0.44181 v 9.88027 9.88026 l -0.61502,1.16609 c -0.92952,1.7624 -1.98862,2.35672 -4.19974,2.35672 -2.2273,0 -3.2855,-0.48545 -3.81366,-1.7495 l -0.38465,-0.9206 0.33935,-0.69594 c 0.47063,-0.96515 0.7967,-0.98988 1.30365,-0.0989 0.49564,0.87113 1.75198,1.27697 2.58048,0.83358 0.29321,-0.15692 0.65671,-0.7304 0.80779,-1.27439 0.17726,-0.63826 0.27521,-7.30006 0.27616,-18.7823 l 10e-4,-17.79323 h 0.56572 c 0.31115,0 1.11482,0.5035 1.78594,1.11888 2.27487,2.08597 6.428,6.68129 6.93963,7.67851 0.27997,0.54571 0.63079,0.99219 0.77958,0.99219 0.50251,0 2.95947,2.49735 5.17405,5.2591 2.35577,2.93781 9.62297,10.88048 9.95517,10.88048 0.32272,0 0.23939,-21.41072 -0.0879,-22.58952 -0.15668,-0.56429 -0.58274,-1.32385 -0.9468,-1.6879 l -0.66192,-0.66193 -1.71719,0.17593 -1.71719,0.17593 0.0858,-0.60469 c 0.13053,-0.92013 2.21034,-1.56588 4.64685,-1.44277 l 1.91524,0.0968 1.25976,0.76894 c 0.90868,0.55463 1.44411,1.13723 1.92122,2.09045 l 0.66146,1.32151 -0.023,8.06979 c -0.0127,4.43839 -0.0252,8.24839 -0.028,8.46667 -0.003,0.21828 0.04,5.39718 0.095,11.50867 l 0.0999,11.1118 -0.45326,0.33143 c -0.24928,0.18229 -0.61419,0.33144 -0.8109,0.33144 -0.19671,0 -1.34238,-0.98227 -2.54594,-2.18282 z m 157.453672,1.49773 c -0.0858,-0.0858 -0.0929,-0.54439 -0.0158,-1.01918 0.1098,-0.67661 0.0339,-0.90426 -0.3512,-1.05288 -0.27021,-0.10429 -5.50848,-0.17799 -11.64062,-0.16376 -7.82923,0.0181 -11.34634,-0.0639 -11.81092,-0.27558 -1.12655,-0.51329 -1.24913,-1.22066 -1.24913,-7.20814 v -5.61722 l 0.39307,-0.56119 0.39307,-0.56118 -0.39307,-0.15084 -0.39307,-0.15084 V 370.01733 357.7383 l 0.43976,-0.36313 c 0.3368,-0.2781 1.3125,-0.34608 4.16719,-0.29033 2.05008,0.04 3.93578,0.13736 4.19044,0.21627 l 0.46303,0.14347 v 7.5311 7.5311 l -0.4083,0.15668 -0.4083,0.15668 0.40507,0.44759 0.40507,0.4476 0.0694,10.0369 0.0694,10.0369 7.9375,0.13229 7.9375,0.13229 1.2657,0.58439 c 2.77748,1.28238 2.52239,4.57499 -0.35444,4.57499 -0.52545,0 -1.02552,-0.0702 -1.11128,-0.15592 z m -119.25936,-2.07396 c -10.35627,-2.15736 -16.8944,-10.27412 -16.31557,-20.25494 0.33918,-5.84853 1.83603,-9.25336 5.97506,-13.59125 2.60803,-2.73334 5.30396,-4.48572 8.64979,-5.62244 l 2.0876,-0.70925 2.77812,-0.02 c 3.26955,-0.0236 4.99282,0.34087 7.60725,1.60874 3.72899,1.80838 5.14087,4.67536 3.77941,7.67451 -0.63165,1.39147 -1.86524,2.18596 -3.39615,2.18729 -2.15319,0.002 -3.75717,-1.38328 -3.75717,-3.24459 v -1.05756 l 0.94488,-0.89113 c 0.51968,-0.49013 1.11499,-0.89114 1.32291,-0.89114 1.25358,0 -0.90253,-2.15246 -2.64471,-2.64024 -1.58975,-0.44511 -4.08466,-0.22757 -6.084,0.53047 -1.20819,0.45808 -2.0306,1.05425 -3.59847,2.60855 -3.26941,3.24111 -4.5437,6.39652 -5.14104,12.73039 l -0.31191,3.30729 0.44409,0.66146 c 0.24425,0.3638 0.81627,1.85208 1.27116,3.30729 1.05794,3.3844 2.35763,5.64658 4.3998,7.65813 1.95208,1.92279 4.02266,2.99199 6.72929,3.47483 2.72105,0.48542 3.10762,0.46596 3.76293,-0.18935 l 0.56577,-0.56577 -0.17673,-2.73368 -0.17674,-2.73368 0.52047,-0.52048 c 0.28626,-0.28626 0.4024,-0.55983 0.25809,-0.60793 -0.44407,-0.14802 -0.81061,-2.3841 -0.6308,-3.84822 l 0.17058,-1.38906 h -2.50427 -2.50427 l -0.1606,-0.41851 c -0.0883,-0.23019 -0.1606,-0.6469 -0.1606,-0.92605 v -0.50752 h 6.06652 6.06652 l 0.41577,0.41577 0.41577,0.41578 v 6.18766 6.18767 l -1.00833,1.05998 c -1.10096,1.15735 -3.51727,2.39851 -6.00312,3.08355 -2.12691,0.58613 -7.41574,0.73041 -9.6573,0.26346 z m 69.10917,-0.46887 c -0.21359,-0.21359 -0.3175,-1.41658 -0.3175,-3.67586 v -3.35836 l 0.43289,-0.16612 0.43289,-0.16611 -0.43289,-0.47834 c -0.53871,-0.59526 -0.54888,-1.7935 -0.12951,-15.25334 0.17229,-5.52979 0.22675,-10.61971 0.12102,-11.31093 l -0.19224,-1.25678 h -5.10111 c -5.31759,0 -7.06918,-0.26169 -8.12065,-1.21326 -1.06543,-0.9642 -0.26748,-3.7791 1.23299,-4.34958 0.9077,-0.34511 0.86413,-0.37249 0.95807,0.60191 l 0.0829,0.85989 14.55209,0.13229 14.55208,0.1323 1.05833,0.52916 c 1.46752,0.73376 2.03866,1.92346 1.922,4.00352 -0.10734,1.91372 -0.81398,3.12932 -2.42717,4.17533 -1.38778,0.89986 -3.69594,0.96609 -4.75081,0.13632 -1.19614,-0.94088 -0.80719,-1.73474 0.44722,-0.91282 1.17458,0.76962 3.34852,-0.38789 3.7471,-1.99512 0.11664,-0.47032 0.008,-0.87579 -0.35331,-1.32292 l -0.52149,-0.64472 -4.42424,-0.0844 c -2.43333,-0.0464 -4.51993,0.0131 -4.63688,0.1323 -0.11696,0.11918 -0.28597,8.01528 -0.37559,17.5469 -0.0896,9.53161 -0.22449,17.53857 -0.2997,17.79323 l -0.13674,0.46302 h -3.50113 c -2.37033,0 -3.60368,-0.10255 -3.81863,-0.3175 z m 69.20177,0.0317 -0.46302,-0.26968 v -2.60438 -2.60438 l 0.46302,-0.17839 0.46302,-0.17839 -0.48605,-0.27283 -0.48605,-0.27282 0.22088,-4.67032 c 0.32644,-6.90214 0.39011,-6.47954 -1.4896,-9.88701 -3.25516,-5.90086 -9.12464,-15.55311 -9.45776,-15.55311 -0.18698,0 -0.33996,0.22355 -0.33996,0.49678 0,0.27322 -0.178,0.64449 -0.39555,0.82504 l -0.39555,0.32828 -0.66278,-0.43427 c -2.28609,-1.49791 2.21027,-4.99684 5.88849,-4.58225 1.45682,0.1642 2.19869,0.69826 3.92162,2.82307 2.35314,2.90203 4.19945,6.06317 4.19945,7.19002 0,0.77737 0.11876,1.0321 0.53518,1.1479 0.3159,0.0879 1.05422,1.04536 1.80192,2.33686 0.69671,1.20341 1.54937,2.54154 1.89479,2.97361 l 0.62804,0.78559 0.71366,-0.66146 c 0.39252,-0.3638 2.55427,-3.41406 4.80389,-6.77835 2.24961,-3.3643 4.42628,-6.51945 4.83703,-7.01146 l 0.74681,-0.89456 h 1.72101 c 2.15305,0 2.90261,0.53109 2.78159,1.97085 l -0.079,0.93956 -0.52916,-0.0913 c -0.29105,-0.0502 -0.62439,-0.25859 -0.74076,-0.46302 -0.11636,-0.20443 -0.37041,-0.37169 -0.56451,-0.37169 -0.86334,0 -3.48166,3.64603 -8.48656,11.8176 l -2.9569,4.82776 -0.18738,9.58349 c -0.10306,5.27092 -0.24795,9.6815 -0.32198,9.80128 -0.19422,0.31425 -7.02684,0.25295 -7.57785,-0.068 z m -167.67038,-0.49058 c -0.18142,-0.339 -0.27389,-6.85741 -0.27389,-19.30848 v -18.79671 l 0.71493,-0.46912 c 0.88004,-0.57746 5.237,-0.80025 6.89881,-0.35277 l 1.09629,0.2952 0.15882,0.85256 c 0.0874,0.4689 0.12189,3.51148 0.0768,6.76128 l -0.0821,5.90873 -0.51359,0.37512 -0.51359,0.37513 h 0.41914 c 0.23053,0 0.49141,0.18833 0.57974,0.41852 0.0883,0.23018 0.16059,5.82612 0.16059,12.43541 v 12.01691 h -4.22402 -4.22402 z m 51.06538,0.002 c -0.2221,-0.415 -0.27227,-2.37846 -0.17833,-6.9789 0.0719,-3.52079 0.12698,-6.58003 0.12239,-6.79831 -0.005,-0.21828 -0.0603,-5.84445 -0.12373,-12.50259 l -0.11541,-12.10572 0.65092,-0.29658 c 0.44867,-0.20442 1.76717,-0.23679 4.24353,-0.10415 l 3.59261,0.19231 v 3.08903 c 0,2.35713 -0.0968,3.22725 -0.40865,3.67245 l -0.40865,0.58343 0.32287,0.59992 c 0.18603,0.34567 0.37385,2.0857 0.44316,4.10565 0.0786,2.28992 0.22303,3.52514 0.41651,3.56169 0.16292,0.0308 3.0045,0.0605 6.31462,0.0661 l 6.0184,0.0102 8e-4,-7.61332 7.9e-4,-7.61332 0.59531,-0.21965 c 0.97973,-0.36148 6.19692,-0.58096 6.95536,-0.2926 l 0.68977,0.26225 -0.0263,7.34145 c -0.0145,4.03779 0.0516,8.41906 0.14681,9.73616 0.0952,1.3171 0.0846,6.76421 -0.0237,12.10469 l -0.19666,9.70997 h -4.07022 -4.07021 v -3.38667 c 0,-2.1545 0.10822,-3.49489 0.29746,-3.68412 0.22021,-0.22022 0.22021,-0.51902 0,-1.15073 -0.18665,-0.53541 -0.29746,-3.10556 -0.29746,-6.89922 v -6.04593 l -5.6224,0.004 c -3.09231,0.002 -5.89028,0.0754 -6.2177,0.16316 l -0.59532,0.15953 -0.0145,4.53321 c -0.0226,7.09859 -0.41663,15.52116 -0.74121,15.84574 -0.16519,0.1652 -1.79985,0.33894 -3.83975,0.40813 l -3.55209,0.12047 -0.30905,-0.57747 z"
         id="path1463"
         clip-path="url(#clipPath17778)"
         transform="matrix(1.0368274,0,0,1.0368274,139.50461,73.899334)" />
    </g>
    <g
       id="g20403">
      <g
         id="g20205"
         transform="matrix(0.69917139,0,0,0.69917139,284.94854,521.70968)">
        <rect
           class="svg__rect"
           x="1.5136964"
           y="0"
           width="66.18"
           height="35"
           fill="#e5e9f0"
           id="rect20187"
           ry="9.4689779" />
        <rect
           class="svg__rect"
           x="71.748512"
           y="0"
           width="136.41"
           height="35"
           fill="#161320"
           id="rect20189"
           ry="7.8084092" />
        <path
           class="svg__text"
           d="m 17.213696,22 h -1.48 v -8.53 h 3.26 q 1.43,0 2.27,0.74 0.84,0.75 0.84,1.97 v 0 q 0,1.26 -0.82,1.95 -0.82,0.7 -2.31,0.7 v 0 h -1.76 z m 0,-7.34 v 2.98 h 1.78 q 0.79,0 1.21,-0.37 0.41,-0.37 0.41,-1.08 v 0 q 0,-0.69 -0.42,-1.1 -0.42,-0.41 -1.16,-0.43 v 0 z m 14.75,7.34 h -5.57 v -8.53 h 5.53 v 1.19 h -4.05 v 2.36 h 3.5 v 1.17 h -3.5 v 2.63 h 4.09 z m 4.98,0 h -1.54 l 3.22,-8.53 h 1.33 l 3.23,8.53 h -1.55 l -0.7,-1.99 h -3.3 z m 2.34,-6.72 -1.23,3.54 h 2.47 z m 9.34,6.72 h -1.49 v -8.53 h 1.49 v 4 l 0.82,-1.01 2.49,-2.99 h 1.8 l -3.17,3.78 3.35,4.75 h -1.76 l -2.57,-3.69 -0.96,1.03 z"
           fill="#161320"
           id="path20191" />
        <path
           class="svg__text"
           d="m 88.13848,22 h -2.2 v -8.4 h 1.95 l 2.96,4.85 2.88,-4.85 h 1.95 l 0.03,8.4 h -2.18 l -0.03,-4.45 -2.16,3.62 h -1.05 l -2.15,-3.5 z m 15.11001,0 h -2.38001 v -8.4 h 2.38001 z m 7.50001,0 h -2.33 v -8.4 h 1.96 l 3.71,4.47 V 13.6 h 2.32 V 22 h -1.95 l -3.71,-4.48 z m 13.2,0 h -2.38 v -8.4 h 2.38 z m 7.37,0 h -2.19 v -8.4 h 1.95 l 2.96,4.85 2.88,-4.85 h 1.95 l 0.02,8.4 h -2.17 l -0.03,-4.45 -2.16,3.62 h -1.05 l -2.16,-3.5 z m 14.16,0 h -2.43 l 3.71,-8.4 h 2.34 l 3.72,8.4 h -2.47 l -0.66,-1.63 h -3.55 z m 2.43,-6.07 -1.08,2.68 h 2.16 z m 15.45,6.07 h -6.39 v -8.4 h 2.38 v 6.51 h 4.01 z m 6.79,0 h -2.37 v -8.4 h 2.37 z m 4.59,-0.76 v 0 l 0.78,-1.75 q 0.56,0.37 1.31,0.6 0.74,0.23 1.46,0.23 v 0 q 1.37,0 1.37,-0.68 v 0 q 0,-0.36 -0.39,-0.53 -0.38,-0.18 -1.25,-0.37 v 0 q -0.95,-0.21 -1.59,-0.44 -0.63,-0.24 -1.09,-0.75 -0.45,-0.52 -0.45,-1.39 v 0 q 0,-0.77 0.42,-1.39 0.42,-0.62 1.25,-0.98 0.84,-0.36 2.04,-0.36 v 0 q 0.83,0 1.64,0.19 0.8,0.18 1.42,0.55 v 0 l -0.74,1.76 q -1.2,-0.65 -2.33,-0.65 v 0 q -0.71,0 -1.03,0.21 -0.32,0.21 -0.32,0.55 v 0 q 0,0.33 0.38,0.5 0.39,0.17 1.24,0.35 v 0 q 0.96,0.21 1.59,0.44 0.63,0.23 1.09,0.74 0.46,0.51 0.46,1.39 v 0 q 0,0.75 -0.42,1.37 -0.42,0.61 -1.26,0.97 -0.84,0.37 -2.04,0.37 v 0 q -1.02,0 -1.98,-0.25 -0.96,-0.25 -1.56,-0.68 z m 14.04,0.76 h -2.2 v -8.4 h 1.96 l 2.95,4.85 2.88,-4.85 h 1.95 l 0.03,8.4 h -2.18 l -0.03,-4.45 -2.16,3.62 h -1.05 l -2.15,-3.5 z"
           fill="#e5e9f0"
           x="77.18"
           id="path20193" />
      </g>
    </g>
  </g>
</svg>
