<?xml version="1.0" encoding="UTF-8"?>
<svg xmlns="http://www.w3.org/2000/svg" xmlns:xlink="http://www.w3.org/1999/xlink" viewBox="0 0 30 30" width="30px" height="30px">
<g id="surface77552238">
<path style=" stroke:none;fill-rule:nonzero;fill:rgb(100%,100%,100%);fill-opacity:1;" d="M 15 4 C 10.8125 4 5.378906 5.046875 5.378906 5.046875 L 5.367188 5.0625 C 3.460938 5.371094 2 7.007812 2 9 L 2 21 C 2.003906 22.96875 3.433594 24.640625 5.375 24.945312 L 5.378906 24.949219 C 5.378906 24.949219 10.8125 26 15 26 C 19.1875 26 24.621094 24.949219 24.621094 24.949219 C 26.566406 24.644531 27.996094 22.96875 28 21 L 28 9 C 27.996094 7.035156 26.566406 5.359375 24.621094 5.054688 L 24.621094 5.046875 C 24.621094 5.046875 19.1875 4 15 4 Z M 12 10.398438 L 20 15 L 12 19.601562 Z M 12 10.398438 "/>
</g>
</svg>
