<?xml version="1.0" encoding="UTF-8" standalone="no"?>
<svg
   viewBox="0 0 50 50"
   width="50px"
   height="50px"
   version="1.1"
   id="svg5"
   sodipodi:docname="gmail.svg"
   xml:space="preserve"
   inkscape:version="1.2 (dc2aedaf03, 2022-05-15)"
   xmlns:inkscape="http://www.inkscape.org/namespaces/inkscape"
   xmlns:sodipodi="http://sodipodi.sourceforge.net/DTD/sodipodi-0.dtd"
   xmlns="http://www.w3.org/2000/svg"
   xmlns:svg="http://www.w3.org/2000/svg"><defs
     id="defs9" /><sodipodi:namedview
     id="namedview7"
     pagecolor="#505050"
     bordercolor="#ffffff"
     borderopacity="1"
     inkscape:showpageshadow="0"
     inkscape:pageopacity="0"
     inkscape:pagecheckerboard="1"
     inkscape:deskcolor="#505050"
     showgrid="false"
     inkscape:zoom="3.5459889"
     inkscape:cx="24.675768"
     inkscape:cy="42.865334"
     inkscape:window-width="1366"
     inkscape:window-height="702"
     inkscape:window-x="0"
     inkscape:window-y="0"
     inkscape:window-maximized="1"
     inkscape:current-layer="svg5" /><path
     style="fill:#ffffff;stroke-width:0.0795771"
     d="m 7.8323064,42.195747 c -1.464408,-0.318157 -2.730991,-1.58371 -3.084167,-3.081666 -0.176663,-0.74928 -0.176663,-25.472921 0,-26.222201 0.357765,-1.517419 1.622634,-2.767642 3.121372,-3.085229 0.807818,-0.17118 33.4531566,-0.17118 34.2609806,0 1.498738,0.317587 2.763602,1.56781 3.121372,3.085229 0.176658,0.74928 0.176658,25.472921 0,26.222201 -0.35777,1.517419 -1.622634,2.767642 -3.121372,3.085229 -0.781245,0.16555 -33.5354596,0.162143 -34.2981856,-0.0038 z m 4.9128576,-12.89884 c 0,-7.630077 0.01649,-8.954586 0.110943,-8.918341 0.06102,0.02343 2.800167,1.746107 6.087007,3.828206 3.286839,2.082093 6.012438,3.785631 6.056885,3.785631 0.04448,0 2.770051,-1.703538 6.056891,-3.785631 3.286834,-2.082099 6.025988,-3.804789 6.087006,-3.828206 0.09446,-0.03623 0.110938,1.288264 0.110938,8.918341 v 8.960906 h 2.029211 2.029207 V 26.002978 13.748149 h -1.20607 -1.206075 l -6.950554,4.291673 -6.950554,4.291674 -6.950554,-4.291674 -6.950554,-4.291673 H 9.8928214 8.6867464 v 12.254829 12.254835 h 2.0292116 2.029206 z"
     id="path201" /></svg>
