<?xml version="1.0" encoding="UTF-8"?>
<svg xmlns="http://www.w3.org/2000/svg" xmlns:xlink="http://www.w3.org/1999/xlink" viewBox="0 0 24 24" width="24px" height="24px">
<g id="surface5084726">
<path style=" stroke:none;fill-rule:nonzero;fill:rgb(100%,100%,100%);fill-opacity:1;" d="M 10.488281 2 C 10.011719 2 9.601562 2.339844 9.507812 2.808594 L 9.175781 4.523438 C 8.355469 4.832031 7.597656 5.265625 6.929688 5.8125 L 5.285156 5.246094 C 4.832031 5.09375 4.332031 5.28125 4.09375 5.695312 L 2.585938 8.308594 C 2.347656 8.722656 2.433594 9.25 2.796875 9.5625 L 4.113281 10.710938 C 4.042969 11.128906 4 11.558594 4 12 C 4 12.441406 4.042969 12.871094 4.113281 13.292969 L 2.796875 14.4375 C 2.433594 14.75 2.347656 15.277344 2.585938 15.695312 L 4.09375 18.308594 C 4.332031 18.722656 4.832031 18.910156 5.285156 18.753906 L 6.929688 18.1875 C 7.597656 18.734375 8.355469 19.167969 9.175781 19.476562 L 9.507812 21.191406 C 9.601562 21.660156 10.011719 22 10.488281 22 L 13.511719 22 C 13.988281 22 14.398438 21.660156 14.492188 21.191406 L 14.824219 19.476562 C 15.644531 19.167969 16.402344 18.734375 17.070312 18.1875 L 18.714844 18.753906 C 19.167969 18.90625 19.667969 18.722656 19.90625 18.308594 L 21.414062 15.691406 C 21.652344 15.277344 21.566406 14.75 21.207031 14.4375 L 19.886719 13.292969 C 19.957031 12.871094 20 12.441406 20 12 C 20 11.558594 19.957031 11.128906 19.886719 10.710938 L 21.207031 9.5625 C 21.566406 9.25 21.652344 8.722656 21.414062 8.308594 L 19.90625 5.695312 C 19.667969 5.277344 19.167969 5.089844 18.714844 5.246094 L 17.070312 5.8125 C 16.402344 5.265625 15.644531 4.832031 14.824219 4.523438 L 14.492188 2.808594 C 14.398438 2.339844 13.988281 2 13.511719 2 Z M 12 8 C 14.210938 8 16 9.789062 16 12 C 16 14.210938 14.210938 16 12 16 C 9.789062 16 8 14.210938 8 12 C 8 9.789062 9.789062 8 12 8 Z M 12 8 "/>
</g>
</svg>
