<?xml version="1.0" encoding="UTF-8"?>
<svg xmlns="http://www.w3.org/2000/svg" xmlns:xlink="http://www.w3.org/1999/xlink" viewBox="0 0 30 30" width="30px" height="30px">
<g id="surface77641024">
<path style=" stroke:none;fill-rule:nonzero;fill:rgb(100%,100%,100%);fill-opacity:1;" d="M 15 3 C 8.371094 3 3 8.371094 3 15 C 3 17.25 3.632812 19.351562 4.710938 21.152344 L 3.105469 27 L 9.082031 25.433594 C 10.828125 26.425781 12.847656 27 15 27 C 21.628906 27 27 21.628906 27 15 C 27 8.371094 21.628906 3 15 3 Z M 10.890625 9.402344 C 11.085938 9.402344 11.289062 9.402344 11.460938 9.410156 C 11.675781 9.414062 11.90625 9.429688 12.128906 9.921875 C 12.394531 10.511719 12.972656 11.980469 13.046875 12.128906 C 13.121094 12.277344 13.171875 12.453125 13.070312 12.648438 C 12.972656 12.847656 12.921875 12.96875 12.777344 13.144531 C 12.628906 13.320312 12.464844 13.53125 12.332031 13.660156 C 12.179688 13.8125 12.027344 13.972656 12.199219 14.269531 C 12.371094 14.570312 12.96875 15.542969 13.851562 16.328125 C 14.988281 17.34375 15.945312 17.652344 16.242188 17.800781 C 16.539062 17.953125 16.710938 17.929688 16.886719 17.726562 C 17.0625 17.535156 17.628906 16.863281 17.828125 16.566406 C 18.023438 16.269531 18.222656 16.320312 18.492188 16.417969 C 18.765625 16.515625 20.226562 17.234375 20.523438 17.382812 C 20.824219 17.535156 21.019531 17.609375 21.09375 17.726562 C 21.171875 17.851562 21.171875 18.449219 20.921875 19.140625 C 20.675781 19.835938 19.464844 20.503906 18.917969 20.550781 C 18.371094 20.605469 17.859375 20.800781 15.351562 19.8125 C 12.328125 18.621094 10.421875 15.523438 10.269531 15.324219 C 10.121094 15.128906 9.058594 13.714844 9.058594 12.253906 C 9.058594 10.789062 9.828125 10.070312 10.097656 9.773438 C 10.371094 9.476562 10.691406 9.402344 10.890625 9.402344 Z M 10.890625 9.402344 "/>
</g>
</svg>
